<?xml version="1.0" encoding="UTF-8" standalone="no"?>
<svg
   id="Layer_1"
   version="1.2"
   viewBox="0 0 1430 1077.17"
   sodipodi:docname="download (5).svg"
   inkscape:version="1.4.2 (ebf0e940, 2025-05-08)"
   xmlns:inkscape="http://www.inkscape.org/namespaces/inkscape"
   xmlns:sodipodi="http://sodipodi.sourceforge.net/DTD/sodipodi-0.dtd"
   xmlns="http://www.w3.org/2000/svg"
   xmlns:svg="http://www.w3.org/2000/svg">
  <defs
     id="defs53" />
  <sodipodi:namedview
     id="namedview53"
     pagecolor="#505050"
     bordercolor="#eeeeee"
     borderopacity="1"
     inkscape:showpageshadow="0"
     inkscape:pageopacity="0"
     inkscape:pagecheckerboard="0"
     inkscape:deskcolor="#505050"
     inkscape:zoom="0.22627417"
     inkscape:cx="139.21165"
     inkscape:cy="-143.63107"
     inkscape:window-width="1920"
     inkscape:window-height="1052"
     inkscape:window-x="0"
     inkscape:window-y="28"
     inkscape:window-maximized="0"
     inkscape:current-layer="Layer_1" />
  <path
     d="M1292.44,18.86v375.44h81.81c15.47,0,28.01,12.54,28.01,28.01v607.37c0,15.47-12.54,28.01-28.01,28.01H55.75c-15.47,0-28.01-12.54-28.01-28.01V46.87c0-15.47,12.54-28.01,28.01-28.01h1236.69Z"
     fill="#00173f"
     stroke="#f3ecda"
     stroke-miterlimit="10"
     stroke-width=".99"
     id="path1" />
  <path
     d="M1292.44,995.17V18.86H461.92c-15.47,0-28.01,12.54-28.01,28.01v78.44H111.13v837.43s1066.17,0,1066.17,0v32.43h115.14Z"
     fill="#f3ecda"
     stroke="#f3ecda"
     stroke-miterlimit="10"
     stroke-width=".99"
     id="path2" />
  <polygon
     points="609.41 622.88 1237.05 622.88 1237.05 936.62 1177.3 936.62 1177.3 962.74 111.13 962.74 111.13 194.67 465.53 194.67 465.53 649.95 609.41 649.95 609.41 622.88"
     fill="#002e7f"
     stroke="#f3ecda"
     stroke-miterlimit="10"
     stroke-width=".99"
     id="polygon2" />
  <polygon
     points="489.99 541.85 891.42 541.85 891.42 421.43 948.5 421.43 948.5 56.65 489.99 56.65 489.99 541.85"
     fill="#002e7f"
     stroke="#f3ecda"
     stroke-miterlimit="10"
     stroke-width=".99"
     id="polygon3" />
  <polygon
     points="1292.44 56.65 1292.39 541.85 891.42 541.85 891.42 421.43 948.5 421.43 948.5 56.65 1292.44 56.65"
     fill="#002e7f"
     stroke="#f3ecda"
     stroke-miterlimit="10"
     stroke-width=".99"
     id="polygon4" />
  <rect
     x="1118.76"
     y="476.07"
     width="32.22"
     height="65.78"
     fill="#002e7f"
     stroke="#f3ecda"
     stroke-miterlimit="10"
     stroke-width=".99"
     id="rect4" />
  <rect
     x="1150.97"
     y="476.07"
     width="28.01"
     height="65.78"
     fill="#002e7f"
     stroke="#f3ecda"
     stroke-miterlimit="10"
     stroke-width=".99"
     id="rect5" />
  <rect
     x="1178.98"
     y="476.07"
     width="27.41"
     height="65.78"
     fill="#002e7f"
     stroke="#f3ecda"
     stroke-miterlimit="10"
     stroke-width=".99"
     id="rect6" />
  <rect
     x="1206.39"
     y="476.07"
     width="28.63"
     height="65.78"
     fill="#002e7f"
     stroke="#f3ecda"
     stroke-miterlimit="10"
     stroke-width=".99"
     id="rect7" />
  <rect
     x="606.44"
     y="476.07"
     width="57.01"
     height="65.78"
     fill="#002e7f"
     stroke="#f3ecda"
     stroke-miterlimit="10"
     stroke-width=".99"
     id="rect8" />
  <rect
     x="577.94"
     y="476.07"
     width="28.51"
     height="65.78"
     fill="#002e7f"
     stroke="#f3ecda"
     stroke-miterlimit="10"
     stroke-width=".99"
     id="rect9" />
  <rect
     x="663.46"
     y="476.07"
     width="28.51"
     height="65.78"
     fill="#002e7f"
     stroke="#f3ecda"
     stroke-miterlimit="10"
     stroke-width=".99"
     id="rect10" />
  <rect
     x="1235.07"
     y="595.63"
     width="57.37"
     height="16.29"
     fill="#002e7f"
     stroke="#f3ecda"
     stroke-miterlimit="10"
     stroke-width=".99"
     id="rect11" />
  <rect
     x="465.53"
     y="566.21"
     width="143.87"
     height="83.74"
     fill="#40577f"
     stroke="#f3ecda"
     stroke-miterlimit="10"
     stroke-width=".99"
     id="rect12" />
  <rect
     x="1235.02"
     y="476.07"
     width="57.37"
     height="65.78"
     fill="#40577f"
     stroke="#f3ecda"
     stroke-miterlimit="10"
     stroke-width=".99"
     id="rect13" />
  <rect
     x="1235.07"
     y="566.92"
     width="57.32"
     height="28.71"
     fill="#40577f"
     stroke="#f3ecda"
     stroke-miterlimit="10"
     stroke-width=".99"
     id="rect14" />
  <rect
     x="663.46"
     y="566.21"
     width="56.64"
     height="56.64"
     fill="#40577f"
     stroke="#f3ecda"
     stroke-miterlimit="10"
     stroke-width=".99"
     id="rect15" />
  <rect
     x="1226.84"
     y="962.74"
     width="65.6"
     height="32.43"
     fill="#40577f"
     stroke="#f3ecda"
     stroke-miterlimit="10"
     stroke-width=".99"
     id="rect16" />
  <line
     x1="1177.3"
     y1="962.74"
     x2="1226.84"
     y2="962.74"
     fill="none"
     stroke="#00173f"
     stroke-dasharray="1.98 1.98"
     stroke-linecap="round"
     stroke-linejoin="round"
     stroke-width=".74"
     id="line16" />
  <line
     x1="489.99"
     y1="540.86"
     x2="465.53"
     y2="540.86"
     fill="none"
     stroke="#00173f"
     stroke-dasharray="1.98 1.98"
     stroke-linecap="round"
     stroke-linejoin="round"
     stroke-width=".74"
     id="line17" />
  <text
     transform="translate(678.74 788.78)"
     fill="#ffebb3"
     font-family="GreyscaleBasic-Bold, GreyscaleBasic"
     font-size="14.82"
     font-weight="700"
     stroke="#ffebb3"
     stroke-linecap="round"
     stroke-linejoin="round"
     stroke-width=".25"
     id="text17"><tspan
       x="0"
       y="0"
       id="tspan17">1-2</tspan></text>
  <text
     transform="translate(1127.08 513.98)"
     fill="#ffebb3"
     font-family="GreyscaleBasic-Bold, GreyscaleBasic"
     font-size="14.82"
     font-weight="700"
     stroke="#ffebb3"
     stroke-linecap="round"
     stroke-linejoin="round"
     stroke-width=".25"
     id="text18"><tspan
       x="0"
       y="0"
       id="tspan18">22</tspan></text>
  <text
     transform="translate(1157.26 513.98)"
     fill="#ffebb3"
     font-family="GreyscaleBasic-Bold, GreyscaleBasic"
     font-size="14.82"
     font-weight="700"
     stroke="#ffebb3"
     stroke-linecap="round"
     stroke-linejoin="round"
     stroke-width=".25"
     id="text19"><tspan
       x="0"
       y="0"
       id="tspan19">23</tspan></text>
  <text
     transform="translate(1184.81 513.98)"
     fill="#ffebb3"
     font-family="GreyscaleBasic-Bold, GreyscaleBasic"
     font-size="14.82"
     font-weight="700"
     stroke="#ffebb3"
     stroke-linecap="round"
     stroke-linejoin="round"
     stroke-width=".25"
     id="text20"><tspan
       x="0"
       y="0"
       id="tspan20">25</tspan></text>
  <text
     transform="translate(1212.2 514.99)"
     fill="#ffebb3"
     font-family="GreyscaleBasic-Bold, GreyscaleBasic"
     font-size="14.82"
     font-weight="700"
     stroke="#ffebb3"
     stroke-linecap="round"
     stroke-linejoin="round"
     stroke-width=".25"
     id="text21"><tspan
       x="0"
       y="0"
       id="tspan21">26</tspan></text>
  <text
     transform="translate(586.75 512.98)"
     fill="#ffebb3"
     font-family="GreyscaleBasic-Bold, GreyscaleBasic"
     font-size="14.82"
     font-weight="700"
     stroke="#ffebb3"
     stroke-linecap="round"
     stroke-linejoin="round"
     stroke-width=".25"
     id="text22"><tspan
       x="0"
       y="0"
       id="tspan22">15</tspan></text>
  <text
     transform="translate(620.63 512.98)"
     fill="#ffebb3"
     font-family="GreyscaleBasic-Bold, GreyscaleBasic"
     font-size="14.82"
     font-weight="700"
     stroke="#ffebb3"
     stroke-linecap="round"
     stroke-linejoin="round"
     stroke-width=".25"
     id="text23"><tspan
       x="0"
       y="0"
       id="tspan23">16-17</tspan></text>
  <text
     transform="translate(671.75 512.98)"
     fill="#ffebb3"
     font-family="GreyscaleBasic-Bold, GreyscaleBasic"
     font-size="14.82"
     font-weight="700"
     stroke="#ffebb3"
     stroke-linecap="round"
     stroke-linejoin="round"
     stroke-width=".25"
     id="text24"><tspan
       x="0"
       y="0"
       id="tspan24">18</tspan></text>
  <text
     transform="translate(714.67 285.39)"
     fill="#ffebb3"
     font-family="GreyscaleBasic-Bold, GreyscaleBasic"
     font-size="14.82"
     font-weight="700"
     stroke="#ffebb3"
     stroke-linecap="round"
     stroke-linejoin="round"
     stroke-width=".25"
     id="text25"><tspan
       x="0"
       y="0"
       id="tspan25">19</tspan></text>
  <text
     transform="translate(1085.6 290.8)"
     fill="#ffebb3"
     font-family="GreyscaleBasic-Bold, GreyscaleBasic"
     font-size="14.82"
     font-weight="700"
     stroke="#ffebb3"
     stroke-linecap="round"
     stroke-linejoin="round"
     stroke-width=".25"
     id="text26"><tspan
       x="0"
       y="0"
       id="tspan26">20-21</tspan></text>
  <text
     transform="translate(1246.1 606.8)"
     fill="#ffebb3"
     font-family="GreyscaleBasic-Bold, GreyscaleBasic"
     font-size="8.89"
     font-weight="700"
     stroke="#ffebb3"
     stroke-linecap="round"
     stroke-linejoin="round"
     stroke-width=".25"
     id="text27"><tspan
       x="0"
       y="0"
       id="tspan27">BOOTH C</tspan></text>
  <g
     id="g29">
    <path
       d="M1126.27,595.14c-1.58,0-2.86-1.29-2.86-2.85v-26.8c0-1.59,1.28-2.87,2.86-2.87h26.82c1.58,0,2.85,1.28,2.85,2.87v26.8c0,1.57-1.27,2.85-2.85,2.85h-26.82Z"
       fill="#f3ecda"
       id="path27" />
    <path
       d="M1153.09,563.11c1.31,0,2.37,1.06,2.37,2.36v26.81c0,1.3-1.06,2.36-2.37,2.36h-26.82c-1.31,0-2.37-1.06-2.37-2.36v-26.81c0-1.31,1.06-2.36,2.37-2.36h26.82M1153.09,562.12h-26.82c-1.85,0-3.35,1.51-3.35,3.36v26.81c0,1.82,1.5,3.35,3.35,3.35h26.82c1.85,0,3.35-1.52,3.35-3.35v-26.81c0-1.84-1.5-3.36-3.35-3.36"
       fill="#00173f"
       id="path28" />
    <path
       d="M1131.24,588.75v-1.16h3.79c.76,0,1.48-.37,1.94-.97l8.57-11.67h2.56c1.34,0,2.41-1.08,2.41-2.41s-1.07-2.4-2.41-2.4h-3.79c-.75,0-1.48.37-1.93.98l-8.58,11.66h-2.57c-1.34,0-2.4,1.08-2.4,2.4s1.07,2.4,2.4,2.4v1.16c-1.96,0-3.54-1.6-3.54-3.56s1.58-3.53,3.54-3.53h1.99l8.23-11.21c.67-.9,1.73-1.45,2.86-1.45h4.37v.05c1.68.26,2.98,1.73,2.98,3.49,0,1.96-1.61,3.55-3.56,3.55h-1.99l-8.23,11.2c-.67.9-1.73,1.46-2.86,1.46h-3.79Z"
       fill="#00173f"
       id="path29" />
  </g>
  <g
     id="g32">
    <path
       d="M666.81,622.36c-1.58,0-2.86-1.29-2.86-2.85v-26.8c0-1.59,1.28-2.87,2.86-2.87h26.82c1.58,0,2.85,1.28,2.85,2.87v26.8c0,1.57-1.27,2.85-2.85,2.85h-26.82Z"
       fill="#f3ecda"
       id="path30" />
    <path
       d="M693.63,590.33c1.31,0,2.37,1.06,2.37,2.36v26.81c0,1.3-1.06,2.36-2.37,2.36h-26.82c-1.31,0-2.37-1.06-2.37-2.36v-26.81c0-1.31,1.06-2.36,2.37-2.36h26.82M693.63,589.34h-26.82c-1.85,0-3.35,1.51-3.35,3.36v26.81c0,1.82,1.5,3.35,3.35,3.35h26.82c1.85,0,3.35-1.52,3.35-3.35v-26.81c0-1.84-1.5-3.36-3.35-3.36"
       fill="#00173f"
       id="path31" />
    <path
       d="M671.78,615.97v-1.16h3.79c.76,0,1.48-.37,1.94-.97l8.57-11.67h2.56c1.34,0,2.41-1.08,2.41-2.41s-1.07-2.4-2.41-2.4h-3.79c-.75,0-1.48.37-1.93.98l-8.58,11.66h-2.57c-1.34,0-2.4,1.08-2.4,2.4s1.07,2.4,2.4,2.4v1.16c-1.96,0-3.54-1.6-3.54-3.56s1.58-3.53,3.54-3.53h1.99l8.23-11.21c.67-.9,1.73-1.45,2.86-1.45h4.37v.05c1.68.26,2.98,1.73,2.98,3.49,0,1.96-1.61,3.55-3.56,3.55h-1.99l-8.23,11.2c-.67.9-1.73,1.46-2.86,1.46h-3.79Z"
       fill="#00173f"
       id="path32" />
  </g>
  <g
     id="g35">
    <path
       d="M1250.32,595.15c-1.58,0-2.87-1.3-2.87-2.88v-26.81c0-1.58,1.29-2.87,2.87-2.87h26.83c1.58,0,2.86,1.28,2.86,2.87v26.81c0,1.58-1.27,2.88-2.86,2.88h-26.83Z"
       fill="#f3ecda"
       id="path33" />
    <path
       d="M1277.14,563.1c1.31,0,2.37,1.06,2.37,2.37v26.81c0,1.31-1.06,2.38-2.37,2.38h-26.83c-1.31,0-2.37-1.07-2.37-2.38v-26.81c0-1.31,1.06-2.37,2.37-2.37h26.83M1277.14,562.12h-26.83c-1.85,0-3.35,1.5-3.35,3.35v26.81c0,1.85,1.5,3.36,3.35,3.36h26.83c1.85,0,3.35-1.51,3.35-3.36v-26.81c0-1.85-1.5-3.35-3.35-3.35"
       fill="#00173f"
       id="path34" />
    <path
       d="M1262.04,581c-.07,0-.13.01-.16.06-.05.04-.07.1-.07.18v3.85c0,.07.02.13.07.17.03.04.09.04.16.04.06,0,.11,0,.16-.04.05-.04.07-.1.07-.17v-3.85c0-.08-.02-.14-.07-.18-.05-.05-.11-.06-.16-.06M1260.93,584.85h-2.06v-3.6c0-.08-.02-.14-.05-.18-.05-.05-.09-.06-.16-.06s-.13.01-.18.06c-.05.04-.07.1-.07.18v3.85c0,.07.02.13.07.17.04.04.11.04.18.04h2.27c.07,0,.12,0,.17-.04.04-.04.07-.1.07-.17,0-.06-.03-.11-.07-.18-.05-.02-.1-.07-.17-.07M1270.14,575.63h-12.81c-.67,0-1.2.53-1.2,1.2v12.81c0,.65.54,1.19,1.2,1.19h12.81c.66,0,1.19-.54,1.19-1.19v-12.81c0-.67-.53-1.2-1.19-1.2M1270.18,589.64s-.02.04-.05.04h-12.81s-.06-.03-.06-.04v-12.81s.04-.04.06-.04h12.81s.05.02.05.04v12.81ZM1268.98,581h-2.46c-.06,0-.11.01-.16.06-.04.04-.07.1-.07.18,0,.07.03.12.07.14.05.04.1.07.16.07h1.02v3.64c0,.07.02.13.06.17.04.04.09.04.16.04.07,0,.13,0,.16-.04.04-.04.07-.1.07-.17v-3.64h.99c.07,0,.14-.02.17-.07.04-.02.06-.07.06-.14,0-.08-.02-.14-.06-.18-.04-.05-.1-.06-.17-.06M1265.5,581h-2.34s-.11.01-.15.06c-.04.04-.07.1-.07.18v3.85c0,.07.02.13.07.17.05.04.11.04.15.04.08,0,.13,0,.17-.04.05-.04.07-.1.07-.17v-1.9h1.83c.07,0,.13-.04.16-.06.05-.04.07-.11.07-.17,0-.06-.02-.1-.07-.17-.03-.02-.09-.06-.16-.06h-1.83v-1.28h2.09c.07,0,.12-.02.17-.07.03-.02.05-.07.05-.14,0-.08-.02-.14-.05-.18-.05-.05-.1-.06-.17-.06M1263.68,571.17c0,.09.04.19.11.26l2.92,2.91c.07.07.17.11.26.11.04,0,.09,0,.14-.02.13-.07.22-.18.22-.35v-6.79c0-.21-.16-.37-.36-.37s-.38.16-.38.37v5.89l-2.28-2.27c-.07-.07-.16-.12-.26-.12-.08,0-.18.05-.26.12-.07.06-.11.16-.11.25M1267.8,574.43s.09.02.13.02c.1,0,.2-.04.26-.11l2.92-2.91c.07-.07.11-.16.11-.26s-.05-.2-.11-.25c-.07-.07-.16-.12-.26-.12-.09,0-.19.05-.26.12l-2.28,2.27v-5.89c0-.21-.17-.37-.38-.37-.2,0-.36.16-.36.37v6.79c0,.16.09.28.23.35M1260.52,574.45c.21,0,.37-.16.37-.37v-5.9l2.28,2.3c.08.07.17.1.27.1.09,0,.19-.02.27-.1.07-.09.1-.18.1-.27s-.03-.18-.1-.26l-2.91-2.91c-.09-.07-.18-.12-.27-.12-.05,0-.09,0-.14.02-.14.07-.23.19-.23.35v6.79c0,.21.16.37.37.37M1256.64,570.57c.09,0,.18-.02.27-.1l2.27-2.3v5.9c0,.21.16.37.37.37s.37-.16.37-.37v-6.79c0-.16-.1-.27-.23-.35-.04-.02-.09-.02-.14-.02-.09,0-.19.04-.26.12l-2.92,2.91c-.07.07-.11.16-.11.26s.04.18.11.27c.08.07.17.1.26.1"
       fill="#00173f"
       id="path35" />
  </g>
  <g
     id="g38">
    <path
       d="M1232.46,989.75c-1.58,0-2.87-1.3-2.87-2.88v-26.81c0-1.58,1.29-2.87,2.87-2.87h26.83c1.58,0,2.86,1.28,2.86,2.87v26.81c0,1.58-1.27,2.88-2.86,2.88h-26.83Z"
       fill="#f3ecda"
       id="path36" />
    <path
       d="M1259.29,957.7c1.31,0,2.37,1.06,2.37,2.37v26.81c0,1.31-1.06,2.38-2.37,2.38h-26.83c-1.31,0-2.37-1.07-2.37-2.38v-26.81c0-1.31,1.06-2.37,2.37-2.37h26.83M1259.29,956.71h-26.83c-1.85,0-3.35,1.5-3.35,3.35v26.81c0,1.85,1.5,3.36,3.35,3.36h26.83c1.85,0,3.35-1.51,3.35-3.36v-26.81c0-1.85-1.5-3.35-3.35-3.35"
       fill="#00173f"
       id="path37" />
    <path
       d="M1244.19,975.6c-.07,0-.13.01-.16.06-.05.04-.07.1-.07.18v3.85c0,.07.02.13.07.17.03.04.09.04.16.04.06,0,.11,0,.16-.04.05-.04.07-.1.07-.17v-3.85c0-.08-.02-.14-.07-.18-.05-.05-.11-.06-.16-.06M1243.08,979.44h-2.06v-3.6c0-.08-.02-.14-.05-.18-.05-.05-.09-.06-.16-.06s-.13.01-.18.06c-.05.04-.07.1-.07.18v3.85c0,.07.02.13.07.17.04.04.11.04.18.04h2.27c.07,0,.12,0,.17-.04.04-.04.07-.1.07-.17,0-.06-.03-.11-.07-.18-.05-.02-.1-.07-.17-.07M1252.28,970.23h-12.81c-.67,0-1.2.53-1.2,1.2v12.81c0,.65.54,1.19,1.2,1.19h12.81c.66,0,1.19-.54,1.19-1.19v-12.81c0-.67-.53-1.2-1.19-1.2M1252.33,984.24s-.02.04-.05.04h-12.81s-.06-.03-.06-.04v-12.81s.04-.04.06-.04h12.81s.05.02.05.04v12.81ZM1251.13,975.6h-2.46c-.06,0-.11.01-.16.06-.04.04-.07.1-.07.18,0,.07.03.12.07.14.05.04.1.07.16.07h1.02v3.64c0,.07.02.13.06.17.04.04.09.04.16.04.07,0,.13,0,.16-.04.04-.04.07-.1.07-.17v-3.64h.99c.07,0,.14-.02.17-.07.04-.02.06-.07.06-.14,0-.08-.02-.14-.06-.18-.04-.05-.1-.06-.17-.06M1247.65,975.6h-2.34s-.11.01-.15.06c-.04.04-.07.1-.07.18v3.85c0,.07.02.13.07.17.05.04.11.04.15.04.08,0,.13,0,.17-.04.05-.04.07-.1.07-.17v-1.9h1.83c.07,0,.13-.04.16-.06.05-.04.07-.11.07-.17,0-.06-.02-.1-.07-.17-.03-.02-.09-.06-.16-.06h-1.83v-1.28h2.09c.07,0,.12-.02.17-.07.03-.02.05-.07.05-.14,0-.08-.02-.14-.05-.18-.05-.05-.1-.06-.17-.06M1245.83,965.77c0,.09.04.19.11.26l2.92,2.91c.07.07.17.11.26.11.04,0,.09,0,.14-.02.13-.07.22-.18.22-.35v-6.79c0-.21-.16-.37-.36-.37s-.38.16-.38.37v5.89l-2.28-2.27c-.07-.07-.16-.12-.26-.12-.08,0-.18.05-.26.12-.07.06-.11.16-.11.25M1249.94,969.03s.09.02.13.02c.1,0,.2-.04.26-.11l2.92-2.91c.07-.07.11-.16.11-.26s-.05-.2-.11-.25c-.07-.07-.16-.12-.26-.12-.09,0-.19.05-.26.12l-2.28,2.27v-5.89c0-.21-.17-.37-.38-.37-.2,0-.36.16-.36.37v6.79c0,.16.09.28.23.35M1242.67,969.05c.21,0,.37-.16.37-.37v-5.9l2.28,2.3c.08.07.17.1.27.1.09,0,.19-.02.27-.1.07-.09.1-.18.1-.27s-.03-.18-.1-.26l-2.91-2.91c-.09-.07-.18-.12-.27-.12-.05,0-.09,0-.14.02-.14.07-.23.19-.23.35v6.79c0,.21.16.37.37.37M1238.78,965.17c.09,0,.18-.02.27-.1l2.27-2.3v5.9c0,.21.16.37.37.37s.37-.16.37-.37v-6.79c0-.16-.1-.27-.23-.35-.04-.02-.09-.02-.14-.02-.09,0-.19.04-.26.12l-2.92,2.91c-.07.07-.11.16-.11.26s.04.18.11.27c.08.07.17.1.26.1"
       fill="#00173f"
       id="path38" />
  </g>
  <g
     id="g41">
    <path
       d="M508.28,624.35c-1.58,0-2.86-1.29-2.86-2.88v-26.79c0-1.57,1.28-2.86,2.86-2.86h26.82c1.58,0,2.85,1.28,2.85,2.86v26.79c0,1.59-1.27,2.88-2.85,2.88h-26.82Z"
       fill="#f3ecda"
       id="path39" />
    <path
       d="M535.1,592.31c1.28,0,2.37,1.08,2.37,2.37v26.79c0,1.32-1.06,2.38-2.37,2.38h-26.82c-1.31,0-2.37-1.06-2.37-2.38v-26.79c0-1.31,1.06-2.37,2.37-2.37h26.82M535.1,591.33h-26.82c-1.85,0-3.35,1.51-3.35,3.35v26.79c0,1.84,1.5,3.37,3.35,3.37h26.82c1.84,0,3.35-1.53,3.35-3.37v-26.79c0-1.84-1.51-3.35-3.35-3.35"
       fill="#00173f"
       id="path40" />
    <path
       d="M529.6,597.94c0-1.12-.9-1.99-1.99-1.99s-2.01.87-2.01,1.99.89,1.99,2.01,1.99,1.99-.89,1.99-1.99M526.75,597.94c0-.48.38-.84.86-.84s.84.37.84.84-.38.84-.84.84c-.48,0-.86-.37-.86-.84M532.63,605.02l-3.47-3.48c-.34-.32-.69-.55-1.13-.56-.35,0-.71.2-.87.48-.16.28-.21.59-.21.93.02,1.71,1.03,3.21,1.95,4.92.87,1.6,1.68,3.33,1.8,5.43h-3.17c-.16,0-.3.05-.41.16-.12.1-.17.24-.17.41v6.32c0,.32.26.58.58.58s.58-.26.58-.58v-5.75h3.2c.15,0,.3-.06.4-.17.11-.11.16-.26.16-.4,0-2.64-1-4.78-1.94-6.53-.97-1.77-1.84-3.21-1.82-4.38-.01-.1,0-.16,0-.22.06.03.15.1.23.2l3.48,3.46c.21.23.59.23.82,0,.22-.22.22-.59,0-.81M521.69,594.7c-.32,0-.58.27-.58.59v25.58c0,.32.26.57.58.57.3,0,.57-.25.57-.57v-25.58c0-.31-.27-.59-.57-.59M515.78,595.95c-1.11,0-2,.87-2,1.99s.9,1.99,2,1.99,1.99-.89,1.99-1.99-.89-1.99-1.99-1.99M515.78,598.78c-.47,0-.85-.37-.85-.84s.38-.84.85-.84.85.37.85.84-.38.84-.85.84M516.44,602.46c0-.35-.06-.67-.23-.96-.16-.28-.53-.52-.88-.51-.45.01-.78.25-1.11.55l-3.47,3.48c-.23.22-.23.59,0,.81.22.23.59.23.81,0l3.47-3.46c.09-.1.16-.16.23-.19,0,.05.02.16.02.28,0,.69-.27,2.01-.58,3.55-.31,1.6-.62,3.44-.62,5.39.01,3.84,1.21,8.37,1.22,8.39.07.25.3.42.56.42h.14c.3-.08.49-.4.41-.72,0,0-.3-1.08-.6-2.66-.29-1.59-.57-3.62-.57-5.42s.29-3.6.57-5.15c.3-1.57.6-2.83.62-3.79"
       fill="#00173f"
       id="path41" />
  </g>
  <g
     id="g44">
    <path
       d="M544.01,624.35c-1.58,0-2.86-1.29-2.86-2.87v-26.8c0-1.58,1.28-2.86,2.86-2.86h26.82c1.58,0,2.85,1.28,2.85,2.86v26.8c0,1.58-1.27,2.87-2.85,2.87h-26.82Z"
       fill="#f3ecda"
       id="path42" />
    <path
       d="M570.83,592.31c1.31,0,2.37,1.07,2.37,2.37v26.8c0,1.3-1.06,2.38-2.37,2.38h-26.82c-1.31,0-2.37-1.08-2.37-2.38v-26.8c0-1.29,1.08-2.37,2.37-2.37h26.82M570.83,591.33h-26.82c-1.84,0-3.35,1.5-3.35,3.35v26.8c0,1.85,1.51,3.36,3.35,3.36h26.82c1.85,0,3.35-1.5,3.35-3.36v-26.8c0-1.85-1.5-3.35-3.35-3.35"
       fill="#00173f"
       id="path43" />
    <path
       d="M554.07,602c1.09,0,1.99-.89,1.99-2s-.9-1.99-1.99-1.99-2,.87-2,1.99.89,2,2,2M554.07,599.16c.46,0,.84.36.84.83s-.38.85-.84.85-.85-.38-.85-.85.37-.83.85-.83M559.71,612.83c-.32-.05-.62.16-.66.47-.35,2.11-2.17,3.72-4.37,3.72-2.45-.02-4.44-1.99-4.44-4.44,0-1.75,1.02-3.27,2.5-3.98.28-.14.41-.49.27-.76-.14-.29-.49-.39-.76-.25-1.86.9-3.14,2.79-3.14,5,0,3.08,2.5,5.57,5.57,5.57,2.76,0,5.07-2.02,5.5-4.66.05-.31-.16-.6-.47-.67M565.72,615.34c-.11-.3-.44-.47-.74-.36l-1.14.43-1.46-4.02c-.23-.57-.72-.89-1.32-.93-2.57-.01-3.82-.48-4.69-1.37-.88-.9-1.44-2.43-2.22-4.6-.01-.02-.02-.05-.02-.08.02.02.06.03.09.06l4.25,3c.25.19.61.12.8-.14.19-.26.12-.62-.13-.81l-4.26-2.98c-.46-.29-.75-.5-1.22-.53-.19-.02-.49.09-.63.3-.16.21-.18.42-.19.58.01.32.1.62.23,1.01.78,2.12,1.32,3.78,2.46,4.99,1.16,1.2,2.84,1.72,5.52,1.72.02-.01.08,0,.14.05.07.04.09.1.09.12l1.66,4.55c.05.14.16.26.3.32.07.02.16.05.24.05.07,0,.14-.01.19-.03l1.69-.62c.3-.1.45-.44.35-.72"
       fill="#00173f"
       id="path44" />
  </g>
  <g
     id="g47">
    <path
       d="M697.96,1024.98c-1.57,0-2.86-1.28-2.86-2.86v-26.82c0-1.57,1.3-2.85,2.86-2.85h26.84c1.58,0,2.86,1.28,2.86,2.85v26.82c0,1.58-1.27,2.86-2.86,2.86h-26.84Z"
       fill="#f3ecda"
       id="path45" />
    <path
       d="M724.8,992.94c1.31,0,2.37,1.05,2.37,2.36v26.82c0,1.28-1.08,2.36-2.37,2.36h-26.84c-1.3,0-2.36-1.06-2.36-2.36v-26.82c0-1.3,1.06-2.36,2.36-2.36h26.84M724.8,991.96h-26.84c-1.85,0-3.35,1.5-3.35,3.34v26.82c0,1.84,1.5,3.35,3.35,3.35h26.84c1.84,0,3.35-1.51,3.35-3.35v-26.82c0-1.84-1.51-3.34-3.35-3.34"
       fill="#00173f"
       id="path46" />
    <path
       d="M711.97,997.89c.88,0,1.73.18,2.51.52.8.35,1.49.81,2.08,1.39.59.59,1.06,1.27,1.41,2.07.34.79.52,1.64.52,2.54s-.18,1.74-.52,2.53c-.35.8-.82,1.49-1.41,2.07-.59.59-1.28,1.04-2.08,1.37-.78.34-1.63.51-2.51.51h-5.37v7.54c0,.34-.11.6-.31.81-.22.21-.5.3-.83.3s-.61-.09-.83-.3c-.23-.21-.35-.47-.35-.81v-19.36c0-.32.12-.59.35-.83.22-.23.51-.34.85-.34h6.49ZM711.97,1008.58c.57,0,1.11-.11,1.62-.33.51-.22.96-.52,1.34-.91.38-.38.68-.82.9-1.32.21-.51.34-1.05.34-1.62s-.12-1.12-.34-1.63c-.22-.5-.52-.95-.9-1.34-.38-.4-.83-.7-1.34-.93-.51-.22-1.04-.33-1.62-.33h-5.37v8.4h5.37Z"
       fill="#00173f"
       id="path47" />
  </g>
  <g
     id="g50">
    <path
       d="M1331.15,723.19c-1.57,0-2.86-1.28-2.86-2.86v-26.82c0-1.57,1.3-2.85,2.86-2.85h26.84c1.58,0,2.86,1.28,2.86,2.85v26.82c0,1.58-1.27,2.86-2.86,2.86h-26.84Z"
       fill="#f3ecda"
       id="path48" />
    <path
       d="M1357.99,691.14c1.31,0,2.37,1.05,2.37,2.36v26.82c0,1.28-1.08,2.36-2.37,2.36h-26.84c-1.3,0-2.36-1.06-2.36-2.36v-26.82c0-1.3,1.06-2.36,2.36-2.36h26.84M1357.99,690.16h-26.84c-1.85,0-3.35,1.5-3.35,3.34v26.82c0,1.84,1.5,3.35,3.35,3.35h26.84c1.84,0,3.35-1.51,3.35-3.35v-26.82c0-1.84-1.51-3.34-3.35-3.34"
       fill="#00173f"
       id="path49" />
    <path
       d="M1345.17,696.09c.88,0,1.73.18,2.51.52.8.35,1.49.81,2.08,1.39.59.59,1.06,1.27,1.41,2.07.34.79.52,1.64.52,2.54s-.18,1.74-.52,2.53c-.35.8-.82,1.49-1.41,2.07-.59.59-1.28,1.04-2.08,1.37-.78.34-1.63.51-2.51.51h-5.37v7.54c0,.34-.11.6-.31.81-.22.21-.5.3-.83.3s-.61-.09-.83-.3c-.23-.21-.35-.47-.35-.81v-19.36c0-.32.12-.59.35-.83.22-.23.51-.34.85-.34h6.49ZM1345.17,706.79c.57,0,1.11-.11,1.62-.33.51-.22.96-.52,1.34-.91.38-.38.68-.82.9-1.32.21-.51.34-1.05.34-1.62s-.12-1.12-.34-1.63c-.22-.5-.52-.95-.9-1.34-.38-.4-.83-.7-1.34-.93-.51-.22-1.04-.33-1.62-.33h-5.37v8.4h5.37Z"
       fill="#00173f"
       id="path50" />
  </g>
  <g
     id="g53">
    <path
       d="M58.29,552.57c-1.57,0-2.86-1.28-2.86-2.86v-26.82c0-1.57,1.3-2.85,2.86-2.85h26.84c1.58,0,2.86,1.28,2.86,2.85v26.82c0,1.58-1.27,2.86-2.86,2.86h-26.84Z"
       fill="#f3ecda"
       id="path51" />
    <path
       d="M85.13,520.53c1.31,0,2.37,1.05,2.37,2.36v26.82c0,1.28-1.08,2.36-2.37,2.36h-26.84c-1.3,0-2.36-1.06-2.36-2.36v-26.82c0-1.3,1.06-2.36,2.36-2.36h26.84M85.13,519.54h-26.84c-1.85,0-3.35,1.5-3.35,3.34v26.82c0,1.84,1.5,3.35,3.35,3.35h26.84c1.84,0,3.35-1.51,3.35-3.35v-26.82c0-1.84-1.51-3.34-3.35-3.34"
       fill="#00173f"
       id="path52" />
    <path
       d="M72.3,525.47c.88,0,1.73.18,2.51.52.8.35,1.49.81,2.08,1.39.59.59,1.06,1.27,1.41,2.07.34.79.52,1.64.52,2.54s-.18,1.74-.52,2.53c-.35.8-.82,1.49-1.41,2.07-.59.59-1.28,1.04-2.08,1.37-.78.34-1.63.51-2.51.51h-5.37v7.54c0,.34-.11.6-.31.81-.22.21-.5.3-.83.3s-.61-.09-.83-.3c-.23-.21-.35-.47-.35-.81v-19.36c0-.32.12-.59.35-.83.22-.23.51-.34.85-.34h6.49ZM72.3,536.17c.57,0,1.11-.11,1.62-.33.51-.22.96-.52,1.34-.91.38-.38.68-.82.9-1.32.21-.51.34-1.05.34-1.62s-.12-1.12-.34-1.63c-.22-.5-.52-.95-.9-1.34-.38-.4-.83-.7-1.34-.93-.51-.22-1.04-.33-1.62-.33h-5.37v8.4h5.37Z"
       fill="#00173f"
       id="path53" />
  </g>
</svg>
