<svg xmlns="http://www.w3.org/2000/svg" id="Layer_1" version="1.2" viewBox="0 0 1191.17 850.39"><rect x="23.49" y="66.32" width="1144.19" height="717.75" fill="#00173f" stroke="#f3ecda" stroke-miterlimit="10" stroke-width="1.37"></rect><path d="M1108.05,749.11s-45.4,9.51-67.84,9.64c-5.61.03-10.55-1.17-14.88-3.29h-301.85c-10.21,0-19.82-4.86-25.87-13.09h0s-426.75.04-426.75.04c-86.48,0-86.48-55.52-86.48-55.52V172.56h295.95v-20.1h134.18v-61.21h535.24s0,586.3,0,586.3l-30.78.09-10.91,71.47" fill="#f3ecda" stroke="#f3ecda" stroke-miterlimit="10" stroke-width="1.37"></path><rect x="41.11" y="380.99" width="92.36" height="88.37" fill="#f3ecda" stroke="#f3ecda" stroke-miterlimit="10" stroke-width="1.37"></rect><rect x="46.09" y="385.75" width="82.42" height="78.85" rx="14.17" ry="14.17" fill="#002e7f" stroke="#f3ecda" stroke-miterlimit="10" stroke-width="1.37"></rect><rect x="151.55" y="246.16" width="14.75" height="149.9" rx="7.38" ry="7.38" fill="#a3b9d8" stroke="#00173f" stroke-dasharray="2.74 2.74" stroke-linecap="round" stroke-linejoin="round" stroke-width="1.03"></rect><rect x="151.55" y="410.02" width="14.75" height="149.9" rx="7.38" ry="7.38" fill="#a3b9d8" stroke="#00173f" stroke-dasharray="2.74 2.74" stroke-linecap="round" stroke-linejoin="round" stroke-width="1.03"></rect><rect x="151.55" y="573.88" width="14.75" height="149.9" rx="7.38" ry="7.38" fill="#a3b9d8" stroke="#00173f" stroke-dasharray="2.74 2.74" stroke-linecap="round" stroke-linejoin="round" stroke-width="1.03"></rect><polygon points="201.01 686.91 270.39 686.91 270.39 512.19 226.66 512.19 226.66 575.37 193.66 575.37 193.66 655.89 201.01 655.89 201.01 686.91" fill="#40577f" stroke="#f3ecda" stroke-miterlimit="10" stroke-width="1.37"></polygon><path d="M436.81,742.38h-165.96s33.64-2.09,54.43-31.67c21.62-30.76,51.78-32.43,71.79.47,4.51,7.41,10.67,20.01,28.36,20.01,16.5,0,11.38,11.19,11.38,11.19Z" fill="#a3b9d8" stroke="#00173f" stroke-dasharray="2.74 2.74" stroke-linecap="round" stroke-linejoin="round" stroke-width="1.03"></path><path d="M691.54,690.98c6.64-30.92-14.6-42.11-24.28-46.47-9.67-4.36-20.48-8.02-20.48-8.02l-5.86,24.14h-.03c12.89,3.66,22.33,15.51,22.33,29.57,0,16.98-13.76,30.74-30.74,30.74s-30.74-13.76-30.74-30.74c0-14.06,9.44-25.9,22.32-29.56h-.03l-6.85-24.14s-12.9,3.85-22.76,15.99c-9.86,12.14-14.98,13.09-22.95,16.88-7.97,3.79-18.21,13.28-21.81,34.33-3.6,21.05-22.57,43.43-55.38,28.83-32.81-14.6-41.73-.19-41.73,9.86h245.05s-12.71-20.48-6.07-51.4Z" fill="#a3b9d8" stroke="#00173f" stroke-dasharray="2.74 2.74" stroke-linecap="round" stroke-linejoin="round" stroke-width="1.03"></path><path d="M403.05,703.03c-11.1-26.03-27.56-23.1-38.98-25.04-14.11-2.39-20.41-14.84-21.13-26.59-1.14-18.63,9.65-31.22,17.66-34.69,24.2-10.51,40.47,8.5,44.07,20.05,2.85,9.14,6.54,17.93,10.49,23,.1.13.21.27.31.4,4.24,5.21,8.95,8.39,13.73,10.06,8.67,3.03,17.61,1.09,24.6-2.81,0,0,14.21,27.84-4.09,46.14-18.3,18.3-39.84,5.47-46.66-10.53Z" fill="#a3b9d8" stroke="#00173f" stroke-dasharray="2.74 2.74" stroke-linecap="round" stroke-linejoin="round" stroke-width="1.03"></path><path d="M539.33,694.21c-12.31,41.49-50.07,32.15-61.17,15.22-11.1-16.93-9.75-54.92-9.75-54.92,5.53-4.66,10.78-6.47,15.34-6.7,6.44-.33,15.13,1.98,23.6,10.45,7.1,7.1,19.44,8.89,30.68,5.8,10.24-2.82,19.55-9.7,23.14-20.37,0,0,4.14-15.46,17.84-21.98,5.79-3.4,12.62-3.7,17.08-3.42,0,0,7.52,19.29-27.79,34.77-9.16,4.02-26.84,34.01-28.95,41.15Z" fill="#a3b9d8" stroke="#00173f" stroke-dasharray="2.74 2.74" stroke-linecap="round" stroke-linejoin="round" stroke-width="1.03"></path><path d="M652.7,613.27c-20.22,12.38-33.91,7.38-33.91,7.38,0,0,2.85-2.07,7.77-6.28,3.97-3.4,9.29-8.2,15.54-14.46,13.99-13.99,31.13-17.78,31.13-17.78,0,0-4.64,21.41-20.53,31.13Z" fill="#a3b9d8" stroke="#00173f" stroke-dasharray="2.74 2.74" stroke-linecap="round" stroke-linejoin="round" stroke-width="1.03"></path><path d="M699.4,585.92c-23.8,41.93-11.27,52.95-6.72,60.91,4.55,7.97,20.48,25.32,12.37,59.17-8.11,33.85,19.92,36.38,19.92,36.38h15.65c-16.64-15.27-32.27-75.13-32.27-75.13,0,0-8.5-32.5-8.94-65.25v-16.08h0Z" fill="#a3b9d8" stroke="#00173f" stroke-dasharray="2.74 2.74" stroke-linecap="round" stroke-linejoin="round" stroke-width="1.03"></path><path d="M354.45,608.47l6.16,8.24c24.48-9.59,40.47,8.5,44.07,20.05,2.85,9.14,6.54,17.93,10.49,23v-43.07c-25.93-7.88-42.83-16.52-60.72-8.21Z" fill="#004699" stroke="#f3ecda" stroke-miterlimit="10" stroke-width="1.37"></path><path d="M530.1,616.68h0c-50.04,11.96-91.28,7.16-114.61.1-.11-.03-.22-.07-.32-.1v43.07c.1.13.21.27.31.4,15.93,19.54,38.31,10.63,47.32,0,7.57-8.92,14.88-12.04,20.95-12.35,6.44-.33,15.13,1.98,23.6,10.45,7.1,7.1,19.44,8.89,30.68,5.8v-49.38l-7.92,2Z" fill="#004699" stroke="#f3ecda" stroke-miterlimit="10" stroke-width="1.37"></path><path d="M578.9,599h0c-11.99,6.09-25.5,11.53-40.87,15.68v49.38c10.24-2.82,19.55-9.7,23.14-20.37,0,0,4.14-15.46,17.84-21.98l-.1-22.71Z" fill="#004699" stroke="#f3ecda" stroke-miterlimit="10" stroke-width="1.37"></path><path d="M660.21,586.93c7.63-3.86,13.03-4.8,13.03-4.8,0,0,22.18-24.76,35.18-32.08,12.12-6.82,12.35-16.05,12.35-16.05l-30.7-.11s-21.42-1.33-40.9,13.51l11.04,39.52Z" fill="#004699" stroke="#f3ecda" stroke-miterlimit="10" stroke-width="1.37"></path><path d="M660.21,586.93c-5.31,2.69-11.7,6.79-18.1,12.98-6.36,6.15-11.57,11.05-15.54,14.46l-10.46-39.15c.23-.18.44-.35.67-.53,2.25-1.46,8.27-5.49,12.01-9.23,4.32-4.32,15.1-13.63,20.39-18.06l11.04,39.52Z" fill="#004699" stroke="#f3ecda" stroke-miterlimit="10" stroke-width="1.37"></path><path d="M699.4,602c.18,13.09,1.64,26.14,3.34,37.09l18.03-.29,3.62,9.64,29.19-9.54-11.93-36.89h-42.26Z" fill="#004699" stroke="#f3ecda" stroke-miterlimit="10" stroke-width="1.37"></path><path d="M699.4,585.92v16.08h42.26v-37.95h-8.15c-13.87,0-24.18,6.04-34.1,21.87Z" fill="#004699" stroke="#f3ecda" stroke-miterlimit="10" stroke-width="1.37"></path><path d="M578.9,599h0c14.42-7.33,26.63-15.61,37.2-23.78l10.46,39.15c-4.91,4.21-7.77,6.28-7.77,6.28,0,0-5.97,1.1-17.98-1.75,0,0-12.32-2.77-21.82,2.81l-.1-22.71Z" fill="#004699" stroke="#f3ecda" stroke-miterlimit="10" stroke-width="1.37"></path><path d="M720.77,533.97s10.62,5.11,20.89,20.6v9.47h-8.15c-13.87,0-24.18,6.04-34.1,21.87l-26.16-3.78s22.18-24.79,35.18-32.11c12.12-6.82,12.35-16.05,12.35-16.05" fill="#004699" stroke="#f3ecda" stroke-miterlimit="10" stroke-width="1.37"></path><path d="M791.87,677.55h0v-38.65h-38.28l-11.93-36.89v-37.95h44.24s12.04-1.04,19.2,16.77c1.85,4.59,6.11,12.42,6.11,12.42l5.55,9.72s9.36,14.97,17.7,25.55l-42.59,49.04Z" fill="#002e7f" stroke="#f3ecda" stroke-miterlimit="10" stroke-width="1.37"></path><path d="M823.74,726.86s10.81-2.83,24.78,2.75c1.79.72,2.19.92,2.19.92l35.8-56.16c-21.07-13.76-35.55-27.91-35.55-27.91l-33.73,38.44c-4.1,4.68-5.28,11.24-3.05,17.05l9.56,24.91Z" fill="#002e7f" stroke="#f3ecda" stroke-miterlimit="10" stroke-width="1.37"></path><path d="M923.86,693.59c-13.5-4.92-26.32-12.02-37.35-19.22l-35.8,56.16c27.12,14.03,66.85,38.96,85.09,4.06,9.8-18.74.56-36.44-11.95-41Z" fill="#002e7f" stroke="#f3ecda" stroke-miterlimit="10" stroke-width="1.37"></path><path d="M1124.57,602.05h-8.91v-23.65h-31.64s-.67,28.25-19.98,59.96h60.53v-36.31Z" fill="#002e7f" stroke="#f3ecda" stroke-miterlimit="10" stroke-width="1.37"></path><path d="M1149.74,677.55l-30.78.09-5.09,33.34h-58.37v-16.06l-17.63-24.63c11.24-10.42,19.74-21.37,26.17-31.93h85.7v39.19Z" fill="#002e7f" stroke="#f3ecda" stroke-miterlimit="10" stroke-width="1.37"></path><path d="M1037.87,670.29c-8.03,7.44-18.14,13.56-28.5,21.17-6.04,4.43-9.89,13.98-7.65,28.96,2.95,19.65,16.05,38.47,38.49,38.33,22.44-.14,67.84-9.64,67.84-9.64l5.82-38.13h-58.37v-16.06l-17.63-24.63Z" fill="#002e7f" stroke="#f3ecda" stroke-miterlimit="10" stroke-width="1.37"></path><path d="M1124.81,569.96h-40.61c.26-20.41-2.61-38.69-2.61-38.69l68.15-.03v30.99h-24.93v7.73Z" fill="#002e7f" stroke="#f3ecda" stroke-miterlimit="10" stroke-width="1.37"></path><path d="M1081.58,531.27l68.15-.03v-35.32h-77.31s4.97,12.49,9.16,35.35Z" fill="#002e7f" stroke="#f3ecda" stroke-miterlimit="10" stroke-width="1.37"></path><path d="M1057.09,460.64h92.65v35.28h-77.31s-10.5-28.06-15.33-35.28Z" fill="#002e7f" stroke="#f3ecda" stroke-miterlimit="10" stroke-width="1.37"></path><path d="M596.78,255.67h41.86c13.42,0,24.31-11.35,24.31-25.35v-49.72h-66.16v75.07Z" fill="#002e7f" stroke="#f3ecda" stroke-miterlimit="10" stroke-width="1.37"></path><polygon points="724.86 140.33 649.62 140.33 649.62 180.61 724.89 180.61 724.86 140.33" fill="#002e7f" stroke="#f3ecda" stroke-miterlimit="10" stroke-width="1.37"></polygon><polygon points="541.83 242.16 541.83 255.67 585.67 255.67 585.67 231.81 560.15 231.81 560.15 242.16 541.83 242.16" fill="#002e7f" stroke="#f3ecda" stroke-miterlimit="10" stroke-width="1.37"></polygon><rect x="521.98" y="242.16" width="19.86" height="13.51" fill="#002e7f" stroke="#f3ecda" stroke-miterlimit="10" stroke-width="1.37"></rect><rect x="367.42" y="242.16" width="49.33" height="13.51" fill="#002e7f" stroke="#f3ecda" stroke-miterlimit="10" stroke-width="1.37"></rect><rect x="338.99" y="231.81" width="28.43" height="23.87" fill="#002e7f" stroke="#f3ecda" stroke-miterlimit="10" stroke-width="1.37"></rect><rect x="416.75" y="242.16" width="77.65" height="13.51" fill="#002e7f" stroke="#f3ecda" stroke-miterlimit="10" stroke-width="1.37"></rect><path d="M193.66,246.16h127.28c3.96,0,7.18,3.21,7.18,7.18v32.43h-134.46v-39.61Z" fill="#002e7f" stroke="#f3ecda" stroke-miterlimit="10" stroke-width="1.37"></path><path d="M324.71,352.5c2.31-8.11,3.41-18.11,3.41-23.13v-26.39h-69.01v49.52h65.59Z" fill="#002e7f" stroke="#f3ecda" stroke-miterlimit="10" stroke-width="1.37"></path><path d="M193.66,339.04v54.88c0,2.64,2.14,4.79,4.79,4.79h75.87c27.79,0,43.88-23.3,50.39-46.2h-90.44v-13.47h-40.61Z" fill="#002e7f" stroke="#f3ecda" stroke-miterlimit="10" stroke-width="1.37"></path><path d="M960.47,500.24c13.19,24.96,21.55,55.43,19.7,92.06-.45,8.94-7.82,15.97-16.77,15.95l-46.85-.12c-4.96-.01-9.07-3.81-9.51-8.75-1.09-12.21-5.29-36.21-21.01-65.4l74.44-33.74Z" fill="#002e7f" stroke="#f3ecda" stroke-miterlimit="10" stroke-width="1.37"></path><path d="M853.86,474.27c.84,13.51,8.64,24.32,8.64,24.32,9.84,12.31,17.52,24.23,23.53,35.38l74.44-33.74c-10.01-18.95-22.8-34.72-36.02-47.62l-70.59,21.65Z" fill="#002e7f" stroke="#f3ecda" stroke-miterlimit="10" stroke-width="1.37"></path><path d="M924.45,452.62c-25.1-24.48-51.76-38.56-63.89-44.22-3.15-1.47-6.75.8-6.8,4.28-.19,15.42-.55,51.1.1,61.59l70.59-21.65Z" fill="#002e7f" stroke="#f3ecda" stroke-miterlimit="10" stroke-width="1.37"></path><path d="M720.77,390.51h35.64v34.68h35.56v-49.76c0-9.7-6.48-18.2-15.84-20.77l-55.36-15.18v51.02Z" fill="#002e7f" stroke="#f3ecda" stroke-miterlimit="10" stroke-width="1.37"></path><path d="M703.36,334.72c-9.14-2.5-18.15,4.37-18.15,13.84v80.12c0,9.25,7.5,16.75,16.75,16.75h18.81v-105.94l-17.41-4.77Z" fill="#002e7f" stroke="#f3ecda" stroke-miterlimit="10" stroke-width="1.37"></path><path d="M390.78,574.55v-55.87s-54.86-13.31-78.64-42.49c-19.65-24.1-51.96-24.39-51.96-24.39h-26.22c-4.03,0-7.29,3.26-7.29,7.29v53.11h43.73v134.48h57.94v.29c2.95-30.45,26.11-38.49,26.11-38.49,17.89-8.31,34.79.33,60.72,8.21v-42.14h-24.39Z" fill="#002e7f" stroke="#f3ecda" stroke-miterlimit="10" stroke-width="1.37"></path><path d="M328.33,646.68h-57.94v40.23h-69.39s10.06,36.87,54.08,36.87c27.65,0,67.23-23.18,73.25-77.1Z" fill="#002e7f" stroke="#f3ecda" stroke-miterlimit="10" stroke-width="1.37"></path><path d="M415.49,616.78c23.33,7.06,64.57,11.85,114.61-.1v-24.36h-71.29v-60.84c-11.09,1.15-43.65-6.43-43.65-6.43v91.63c.11.03.21.07.32.1Z" fill="#002e7f" stroke="#f3ecda" stroke-miterlimit="10" stroke-width="1.37"></path><path d="M390.78,518.68s12.26,3.8,24.39,6.38v49.46h-24.39v-55.84Z" fill="#00173f" stroke="#f3ecda" stroke-miterlimit="10" stroke-width="1.37"></path><path d="M741.66,554.61h36.67c5.29,0,9.57-4.28,9.57-9.57v-42.18c0-7.93-6.43-14.36-14.36-14.36h-52.77v45.5s10.62,5.11,20.89,20.6Z" fill="#002e7f" stroke="#f3ecda" stroke-miterlimit="10" stroke-width="1.37"></path><path d="M649.17,488.73v58.67s16.48-13.71,40.16-13.51l31.43.09v-45.48l-71.6.23Z" fill="#002e7f" stroke="#f3ecda" stroke-miterlimit="10" stroke-width="1.37"></path><path d="M649.17,488.73s-17.93-.38-33.06,3.07v83.32c1.36-.86,8.46-5.45,12.67-9.66,4.67-4.67,15.49-14.02,20.39-18.06v-58.67Z" fill="#002e7f" stroke="#f3ecda" stroke-miterlimit="10" stroke-width="1.37"></path><path d="M616.1,491.8v83.42c-10.58,8.17-22.79,16.45-37.2,23.78l.04-92.46c12.22-5.68,23.49-10.22,35.44-14.15.43-.14,1.73-.59,1.73-.59Z" fill="#002e7f" stroke="#f3ecda" stroke-miterlimit="10" stroke-width="1.37"></path><path d="M538.03,522.55c5.14-1.54,11.24-3.53,18.29-6.08,7.02-2.53,15.62-6.68,22.62-9.94l-.04,92.46c-11.99,6.09-25.5,11.53-40.87,15.68v-92.12Z" fill="#002e7f" stroke="#f3ecda" stroke-miterlimit="10" stroke-width="1.37"></path><path d="M538.03,555.31h-30.11v-26.18c5.78-.87,9.46-1.48,9.46-1.48,0,0,6.9-.96,20.64-5.09v32.75Z" fill="#002e7f" stroke="#f3ecda" stroke-miterlimit="10" stroke-width="1.37"></path><path d="M507.92,529.13c-10.1,1.52-26.62,3.47-41.1,2.67v23.51h41.1v-26.18Z" fill="#002e7f" stroke="#f3ecda" stroke-miterlimit="10" stroke-width="1.37"></path><path d="M650.74,389.82v33.75c0,11.89-9.64,21.53-21.53,21.53h-50.2v-55.28h71.73Z" fill="#002e7f" stroke="#f3ecda" stroke-miterlimit="10" stroke-width="1.37"></path><polygon points="578.9 389.82 579 445.1 545.87 445.1 545.87 389.82 578.9 389.82" fill="#002e7f" stroke="#f3ecda" stroke-miterlimit="10" stroke-width="1.37"></polygon><path d="M545.87,389.82v55.28h-23.84c-2.64,0-5.27-.3-7.84-.87-12.16-2.7-24.22-4.28-40.82-4.28v-50.14h72.5Z" fill="#002e7f" stroke="#f3ecda" stroke-miterlimit="10" stroke-width="1.37"></path><path d="M473.36,389.82v50.14c-13.9,0-26.02,1.2-36.51,3.06v-53.2h36.51Z" fill="#002e7f" stroke="#f3ecda" stroke-miterlimit="10" stroke-width="1.37"></path><path d="M401.36,451.59c2.86.26,6.22-.62,7.27-1.02,7.65-2.86,17.01-5.58,28.22-7.56v-53.2h-35.49v61.78Z" fill="#002e7f" stroke="#f3ecda" stroke-miterlimit="10" stroke-width="1.37"></path><path d="M401.36,389.82h-29.38c0,12.25,2.36,22.76,5.71,31.45,6.84,17.73,17.71,28.11,21.38,29.77.67.31,1.46.47,2.29.55v-61.78Z" fill="#002e7f" stroke="#f3ecda" stroke-miterlimit="10" stroke-width="1.37"></path><path d="M626.81,322.69h-47.81v67.12h71.73v-43.2c0-13.21-10.71-23.93-23.93-23.93Z" fill="#002e7f" stroke="#f3ecda" stroke-miterlimit="10" stroke-width="1.37"></path><rect x="545.87" y="322.69" width="33.14" height="67.12" fill="#002e7f" stroke="#f3ecda" stroke-miterlimit="10" stroke-width="1.37"></rect><rect x="517.86" y="322.69" width="28" height="40.5" fill="#002e7f" stroke="#f3ecda" stroke-miterlimit="10" stroke-width="1.37"></rect><polygon points="509.69 363.2 509.69 322.69 436.85 322.69 436.85 389.82 473.36 389.82 473.36 370.36 504.44 370.36 504.44 363.2 509.69 363.2" fill="#002e7f" stroke="#f3ecda" stroke-miterlimit="10" stroke-width="1.37"></polygon><path d="M436.85,389.82v-67.12h-21.9s-6.04,0-13.6,3.54v63.59h35.49Z" fill="#002e7f" stroke="#f3ecda" stroke-miterlimit="10" stroke-width="1.37"></path><path d="M371.98,389.82c0-41.95,16.79-57.69,29.38-63.59v63.59h-29.38Z" fill="#002e7f" stroke="#f3ecda" stroke-miterlimit="10" stroke-width="1.37"></path><path d="M742.58,213.08v41.89c0,6.41,4.18,12.06,10.3,13.94,11.94,3.66,31.01,9.51,39.09,11.98,21.89,6.68,42.5,14.49,61.74,22.95,110,48.36,174.82,117.82,174.82,117.82l42.09-32.52h79.12V91.25h-357.56v49.85h-49.6v71.98Z" fill="#002e7f" stroke="#f3ecda" stroke-miterlimit="10" stroke-width="1.37"></path><path d="M811.11,238.71l-3.68-1.22c-4.79-1.58-9.8-2.39-14.84-2.39v-22.02h-50.01v41.89c0,6.41,4.18,12.06,10.3,13.94,11.94,3.66,31.01,9.51,39.09,11.98,21.89,6.68,42.5,14.49,61.74,22.95l18.32-41.57c-27.35-12.24-60.91-23.55-60.91-23.55Z" fill="#002e7f" stroke="#f3ecda" stroke-miterlimit="10" stroke-width="1.37"></path><ellipse cx="848.08" cy="563.71" rx="35.39" ry="83.85" transform="translate(-160.13 420.48) rotate(-25.53)" fill="none" stroke="#00173f" stroke-dasharray="2.74 2.74" stroke-linecap="round" stroke-linejoin="round" stroke-width="1.03"></ellipse><path d="M467.92,264.08h100.41c13.57,0,24.57,11,24.57,24.57h0c0,13.57-11,24.57-24.57,24.57h-164.78c-10.81,0-19.98-6.98-23.27-16.67h73.03c8.05,0,14.57-6.52,14.58-14.56l.03-17.91Z" fill="none" stroke="#00173f" stroke-dasharray="2.74 2.74" stroke-linecap="round" stroke-linejoin="round" stroke-width="1.03"></path><path d="M626.69,264.38c22.88.99,80,5.17,124.4,22.65,3.69,1.45,6.09,5.05,6.09,9.02v31.8c0,6.49-6.24,11.16-12.47,9.33-21.33-6.28-67.57-18.47-119.29-23.27-5.01-.46-8.86-4.65-8.86-9.68v-30.13c0-5.53,4.61-9.95,10.13-9.71Z" fill="none" stroke="#00173f" stroke-dasharray="2.74 2.74" stroke-linecap="round" stroke-linejoin="round" stroke-width="1.03"></path><path d="M1016.71,483.71c10.64-5.18,14.03-18.65,7.21-28.32-54.19-76.92-162.13-124.51-162.13-124.51-17.15-8.24-18.71,9.79-18.71,9.79v29.81s.2,7.41,8.92,11.44c0,0,81.32,33.08,128.83,101.15,5.42,7.76,15.63,10.5,24.14,6.36l11.74-5.71Z" fill="none" stroke="#00173f" stroke-dasharray="2.74 2.74" stroke-linecap="round" stroke-linejoin="round" stroke-width="1.03"></path><ellipse cx="469.99" cy="485.87" rx="80.11" ry="34.83" fill="none" stroke="#00173f" stroke-dasharray="2.74 2.74" stroke-linecap="round" stroke-linejoin="round" stroke-width="1.03"></ellipse><rect x="734.29" y="425.2" width="57.69" height="19.03" fill="#00173f" stroke="#f3ecda" stroke-miterlimit="10" stroke-width="1.37"></rect><rect x="742.82" y="91.25" width="49.15" height="49.85" fill="#40577f" stroke="#f3ecda" stroke-miterlimit="10" stroke-width="1.37"></rect><rect x="257.13" y="183.4" width="56.71" height="48.41" fill="#40577f" stroke="#f3ecda" stroke-miterlimit="10" stroke-width="1.37"></rect><polygon points="313.84 183.4 480.32 183.4 480.32 152.45 585.67 152.45 585.67 231.81 560.15 231.81 560.15 242.16 367.42 242.16 367.42 231.81 313.84 231.81 313.84 183.4" fill="#40577f" stroke="#f3ecda" stroke-miterlimit="10" stroke-width="1.37"></polygon><rect x="1045.89" y="408.48" width="32.95" height="17.96" fill="#00173f" stroke="#f3ecda" stroke-miterlimit="10" stroke-width="1.37"></rect><rect x="41.11" y="483.48" width="92.36" height="258.91" fill="#1f5099" stroke="#f3ecda" stroke-miterlimit="10" stroke-width="1.37"></rect><rect x="41.11" y="171.28" width="92.36" height="197.45" fill="#1f5099" stroke="#f3ecda" stroke-miterlimit="10" stroke-width="1.37"></rect><path d="M823.74,726.86c-2.36.4-7.73,2.91-16.53,7.09-11.15,5.29-42.65,3.71-59.84-22.25l-16.45-28.12,6.81-2.98-7.59-18.88,27.83-9.45" fill="none" stroke="#00173f" stroke-dasharray="2.74 2.74" stroke-linecap="round" stroke-linejoin="round" stroke-width="1.03"></path><line x1="254.9" y1="398.7" x2="254.9" y2="451.79" fill="none" stroke="#00173f" stroke-dasharray="2.74 2.74" stroke-linecap="round" stroke-linejoin="round" stroke-width="1.03"></line><polygon points="614.5 152.45 614.5 91.25 724.89 91.25 724.86 140.33 649.62 140.33 649.62 180.61 596.78 180.61 596.78 152.45 614.5 152.45" fill="#40577f" stroke="#f3ecda" stroke-miterlimit="10" stroke-width="1.37"></polygon><rect x="184.37" y="66.32" width="401.29" height="50.96" fill="#40577f" stroke="#f3ecda" stroke-miterlimit="10" stroke-width="1.37"></rect><rect x="237.87" y="84.2" width="14.75" height="121.75" rx="7.38" ry="7.38" transform="translate(390.33 -100.17) rotate(90)" fill="#a3b9d8" stroke="#00173f" stroke-dasharray="2.74 2.74" stroke-linecap="round" stroke-linejoin="round" stroke-width="1.03"></rect><rect x="384.47" y="84.2" width="14.75" height="121.75" rx="7.38" ry="7.38" transform="translate(536.93 -246.77) rotate(90)" fill="#a3b9d8" stroke="#00173f" stroke-dasharray="2.74 2.74" stroke-linecap="round" stroke-linejoin="round" stroke-width="1.03"></rect><rect x="1124.57" y="561.4" width="25.17" height="76.96" fill="#40577f" stroke="#f3ecda" stroke-miterlimit="10" stroke-width="1.37"></rect><polygon points="193.66 285.77 193.66 327.74 234.27 327.74 234.27 352.5 259.11 352.5 259.11 302.98 234.27 302.98 234.27 285.77 193.66 285.77" fill="#40577f" stroke="#f3ecda" stroke-miterlimit="10" stroke-width="1.37"></polygon><rect x="473.36" y="370.36" width="72.5" height="19.46" fill="#40577f" stroke="#f3ecda" stroke-miterlimit="10" stroke-width="1.37"></rect><polygon points="720.77 390.51 756.41 390.51 756.41 425.2 734.29 425.2 734.29 406.17 720.77 406.17 720.77 390.51" fill="#40577f" stroke="#f3ecda" stroke-miterlimit="10" stroke-width="1.37"></polygon><polygon points="753.58 638.89 766.3 677.55 791.87 677.55 791.87 638.89 753.58 638.89" fill="#40577f" stroke="#f3ecda" stroke-miterlimit="10" stroke-width="1.37"></polygon><rect x="193.66" y="183.4" width="44.14" height="62.76" fill="#40577f" stroke="#f3ecda" stroke-miterlimit="10" stroke-width="1.37"></rect><polygon points="530.1 592.33 530.1 564.05 484.99 564.05 484.99 580.48 458.82 580.48 458.82 592.33 530.1 592.33" fill="#40577f" stroke="#f3ecda" stroke-miterlimit="10" stroke-width="1.37"></polygon><rect x="1102.93" y="389.14" width="46.81" height="71.51" fill="#40577f" stroke="#f3ecda" stroke-miterlimit="10" stroke-width="1.37"></rect><line x1="507.92" y1="564.05" x2="507.92" y2="555.31" fill="none" stroke="#00173f" stroke-dasharray="2.74 2.74" stroke-linecap="round" stroke-linejoin="round" stroke-width="1.03"></line><line x1="935.81" y1="734.58" x2="1006.48" y2="734.58" fill="none" stroke="#00173f" stroke-dasharray="2.74 2.74" stroke-linecap="round" stroke-linejoin="round" stroke-width="1.03"></line><line x1="742.82" y1="106.99" x2="724.88" y2="106.99" fill="none" stroke="#00173f" stroke-dasharray="2.74 2.74" stroke-linecap="round" stroke-linejoin="round" stroke-width="1.03"></line><line x1="585.67" y1="231.81" x2="596.78" y2="231.81" fill="none" stroke="#00173f" stroke-dasharray="2.74 2.74" stroke-linecap="round" stroke-linejoin="round" stroke-width="1.03"></line><line x1="237.8" y1="183.4" x2="257.13" y2="183.4" fill="none" stroke="#00173f" stroke-dasharray="2.74 2.74" stroke-linecap="round" stroke-linejoin="round" stroke-width="1.03"></line><line x1="741.66" y1="554.61" x2="741.66" y2="564.05" fill="none" stroke="#00173f" stroke-dasharray="2.74 2.74" stroke-linecap="round" stroke-linejoin="round" stroke-width="1.03"></line><text transform="translate(894.62 716.53)" fill="#ffebb3" font-family="GreyscaleBasic-Bold, GreyscaleBasic" font-size="8.44" font-weight="700" stroke="#ffebb3" stroke-linecap="round" stroke-linejoin="round" stroke-width=".34"><tspan x="0" y="0">1</tspan></text><text transform="translate(847.58 691.93)" fill="#ffebb3" font-family="GreyscaleBasic-Bold, GreyscaleBasic" font-size="8.44" font-weight="700" stroke="#ffebb3" stroke-linecap="round" stroke-linejoin="round" stroke-width=".34"><tspan x="0" y="0">2</tspan></text><text transform="translate(781.48 623.66)" fill="#ffebb3" font-family="GreyscaleBasic-Bold, GreyscaleBasic" font-size="8.44" font-weight="700" stroke="#ffebb3" stroke-linecap="round" stroke-linejoin="round" stroke-width=".34"><tspan x="0" y="0">3-6</tspan></text><text transform="translate(752.3 524.42)" fill="#ffebb3" font-family="GreyscaleBasic-Bold, GreyscaleBasic" font-size="8.44" font-weight="700" stroke="#ffebb3" stroke-linecap="round" stroke-linejoin="round" stroke-width=".34"><tspan x="0" y="0">7</tspan></text><text transform="translate(677.99 520.82)" fill="#ffebb3" font-family="GreyscaleBasic-Bold, GreyscaleBasic" font-size="8.44" font-weight="700" stroke="#ffebb3" stroke-linecap="round" stroke-linejoin="round" stroke-width=".34"><tspan x="0" y="0">8-9</tspan></text><text transform="translate(629.02 534.79)" fill="#ffebb3" font-family="GreyscaleBasic-Bold, GreyscaleBasic" font-size="8.44" font-weight="700" stroke="#ffebb3" stroke-linecap="round" stroke-linejoin="round" stroke-width=".34"><tspan x="0" y="0">10</tspan></text><text transform="translate(595.8 548.27)" fill="#ffebb3" font-family="GreyscaleBasic-Bold, GreyscaleBasic" font-size="8.44" font-weight="700" stroke="#ffebb3" stroke-linecap="round" stroke-linejoin="round" stroke-width=".34"><tspan x="0" y="0">11</tspan></text><text transform="translate(555.44 563.48)" fill="#ffebb3" font-family="GreyscaleBasic-Bold, GreyscaleBasic" font-size="8.44" font-weight="700" stroke="#ffebb3" stroke-linecap="round" stroke-linejoin="round" stroke-width=".34"><tspan x="0" y="0">12</tspan></text><text transform="translate(519.88 541.8)" fill="#ffebb3" font-family="GreyscaleBasic-Bold, GreyscaleBasic" font-size="8.44" font-weight="700" stroke="#ffebb3" stroke-linecap="round" stroke-linejoin="round" stroke-width=".34"><tspan x="0" y="0">15</tspan></text><text transform="translate(483.92 545.08)" fill="#ffebb3" font-family="GreyscaleBasic-Bold, GreyscaleBasic" font-size="8.44" font-weight="700" stroke="#ffebb3" stroke-linecap="round" stroke-linejoin="round" stroke-width=".34"><tspan x="0" y="0">16</tspan></text><text transform="translate(430 577.38)" fill="#ffebb3" font-family="GreyscaleBasic-Bold, GreyscaleBasic" font-size="8.44" font-weight="700" stroke="#ffebb3" stroke-linecap="round" stroke-linejoin="round" stroke-width=".34"><tspan x="0" y="0">17-18</tspan></text><text transform="translate(797.07 261.32)" fill="#ffebb3" font-family="GreyscaleBasic-Bold, GreyscaleBasic" font-size="8.44" font-weight="700" stroke="#ffebb3" stroke-linecap="round" stroke-linejoin="round" stroke-width=".34"><tspan x="0" y="0">19-20</tspan></text><text transform="translate(950.1 259.72)" fill="#ffebb3" font-family="GreyscaleBasic-Bold, GreyscaleBasic" font-size="8.44" font-weight="700" stroke="#ffebb3" stroke-linecap="round" stroke-linejoin="round" stroke-width=".34"><tspan x="0" y="0">21-25</tspan></text><text transform="translate(1098.38 481.72)" fill="#ffebb3" font-family="GreyscaleBasic-Bold, GreyscaleBasic" font-size="8.44" font-weight="700" stroke="#ffebb3" stroke-linecap="round" stroke-linejoin="round" stroke-width=".34"><tspan x="0" y="0">27</tspan></text><text transform="translate(1097.86 517.03)" fill="#ffebb3" font-family="GreyscaleBasic-Bold, GreyscaleBasic" font-size="8.44" font-weight="700" stroke="#ffebb3" stroke-linecap="round" stroke-linejoin="round" stroke-width=".34"><tspan x="0" y="0">28</tspan></text><text transform="translate(1097.8 554.04)" fill="#ffebb3" font-family="GreyscaleBasic-Bold, GreyscaleBasic" font-size="8.44" font-weight="700" stroke="#ffebb3" stroke-linecap="round" stroke-linejoin="round" stroke-width=".34"><tspan x="0" y="0">29</tspan></text><text transform="translate(1089.36 611.82)" fill="#ffebb3" font-family="GreyscaleBasic-Bold, GreyscaleBasic" font-size="8.44" font-weight="700" stroke="#ffebb3" stroke-linecap="round" stroke-linejoin="round" stroke-width=".34"><tspan x="0" y="0">30</tspan></text><text transform="translate(1090.77 678.11)" fill="#ffebb3" font-family="GreyscaleBasic-Bold, GreyscaleBasic" font-size="8.44" font-weight="700" stroke="#ffebb3" stroke-linecap="round" stroke-linejoin="round" stroke-width=".34"><tspan x="0" y="0">31</tspan></text><text transform="translate(1052.87 734)" fill="#ffebb3" font-family="GreyscaleBasic-Bold, GreyscaleBasic" font-size="8.44" font-weight="700" stroke="#ffebb3" stroke-linecap="round" stroke-linejoin="round" stroke-width=".34"><tspan x="0" y="0">32</tspan></text><text transform="translate(928.89 557.11)" fill="#ffebb3" font-family="GreyscaleBasic-Bold, GreyscaleBasic" font-size="8.44" font-weight="700" stroke="#ffebb3" stroke-linecap="round" stroke-linejoin="round" stroke-width=".34"><tspan x="0" y="0">33</tspan></text><text transform="translate(902.73 496.16)" fill="#ffebb3" font-family="GreyscaleBasic-Bold, GreyscaleBasic" font-size="8.44" font-weight="700" stroke="#ffebb3" stroke-linecap="round" stroke-linejoin="round" stroke-width=".34"><tspan x="0" y="0">35</tspan></text><text transform="translate(870.67 443.98)" fill="#ffebb3" font-family="GreyscaleBasic-Bold, GreyscaleBasic" font-size="8.44" font-weight="700" stroke="#ffebb3" stroke-linecap="round" stroke-linejoin="round" stroke-width=".34"><tspan x="0" y="0">36</tspan></text><text transform="translate(752.16 373.79)" fill="#ffebb3" font-family="GreyscaleBasic-Bold, GreyscaleBasic" font-size="8.44" font-weight="700" stroke="#ffebb3" stroke-linecap="round" stroke-linejoin="round" stroke-width=".34"><tspan x="0" y="0">37</tspan></text><text transform="translate(698.26 393.26)" fill="#ffebb3" font-family="GreyscaleBasic-Bold, GreyscaleBasic" font-size="8.44" font-weight="700" stroke="#ffebb3" stroke-linecap="round" stroke-linejoin="round" stroke-width=".34"><tspan x="0" y="0">38</tspan></text><text transform="translate(310.93 552.25)" fill="#ffebb3" font-family="GreyscaleBasic-Bold, GreyscaleBasic" font-size="8.44" font-weight="700" stroke="#ffebb3" stroke-linecap="round" stroke-linejoin="round" stroke-width=".34"><tspan x="0" y="0">50-51</tspan></text><text transform="translate(256.7 704.77)" fill="#ffebb3" font-family="GreyscaleBasic-Bold, GreyscaleBasic" font-size="8.44" font-weight="700" stroke="#ffebb3" stroke-linecap="round" stroke-linejoin="round" stroke-width=".34"><tspan x="0" y="0">50A</tspan></text><text transform="translate(254.7 376.8)" fill="#ffebb3" font-family="GreyscaleBasic-Bold, GreyscaleBasic" font-size="8.44" font-weight="700" stroke="#ffebb3" stroke-linecap="round" stroke-linejoin="round" stroke-width=".34"><tspan x="0" y="0">52</tspan></text><text transform="translate(286.26 330.61)" fill="#ffebb3" font-family="GreyscaleBasic-Bold, GreyscaleBasic" font-size="8.44" font-weight="700" stroke="#ffebb3" stroke-linecap="round" stroke-linejoin="round" stroke-width=".34"><tspan x="0" y="0">53A</tspan></text><text transform="translate(253.7 268.83)" fill="#ffebb3" font-family="GreyscaleBasic-Bold, GreyscaleBasic" font-size="8.44" font-weight="700" stroke="#ffebb3" stroke-linecap="round" stroke-linejoin="round" stroke-width=".34"><tspan x="0" y="0">53B</tspan></text><text transform="translate(348.31 246.61)" fill="#ffebb3" font-family="GreyscaleBasic-Bold, GreyscaleBasic" font-size="8.44" font-weight="700" stroke="#ffebb3" stroke-linecap="round" stroke-linejoin="round" stroke-width=".34"><tspan x="0" y="0">56</tspan></text><text transform="translate(387.78 251.78)" fill="#ffebb3" font-family="GreyscaleBasic-Bold, GreyscaleBasic" font-size="8.44" font-weight="700" stroke="#ffebb3" stroke-linecap="round" stroke-linejoin="round" stroke-width=".34"><tspan x="0" y="0">57</tspan></text><text transform="translate(444.06 251.78)" fill="#ffebb3" font-family="GreyscaleBasic-Bold, GreyscaleBasic" font-size="8.44" font-weight="700" stroke="#ffebb3" stroke-linecap="round" stroke-linejoin="round" stroke-width=".34"><tspan x="0" y="0">58-59</tspan></text><text transform="translate(526.49 251.78)" fill="#ffebb3" font-family="GreyscaleBasic-Bold, GreyscaleBasic" font-size="8.44" font-weight="700" stroke="#ffebb3" stroke-linecap="round" stroke-linejoin="round" stroke-width=".34"><tspan x="0" y="0">60</tspan></text><text transform="translate(560.25 252.36)" fill="#ffebb3" font-family="GreyscaleBasic-Bold, GreyscaleBasic" font-size="8.44" font-weight="700" stroke="#ffebb3" stroke-linecap="round" stroke-linejoin="round" stroke-width=".34"><tspan x="0" y="0">61</tspan></text><text transform="translate(625.01 221.01)" fill="#ffebb3" font-family="GreyscaleBasic-Bold, GreyscaleBasic" font-size="8.44" font-weight="700" stroke="#ffebb3" stroke-linecap="round" stroke-linejoin="round" stroke-width=".34"><tspan x="0" y="0">62</tspan></text><text transform="translate(675.41 163.34)" fill="#ffebb3" font-family="GreyscaleBasic-Bold, GreyscaleBasic" font-size="8.44" font-weight="700" stroke="#ffebb3" stroke-linecap="round" stroke-linejoin="round" stroke-width=".34"><tspan x="0" y="0">63-66</tspan></text><text transform="translate(610.05 359.69)" fill="#ffebb3" font-family="GreyscaleBasic-Bold, GreyscaleBasic" font-size="8.44" font-weight="700" stroke="#ffebb3" stroke-linecap="round" stroke-linejoin="round" stroke-width=".34"><tspan x="0" y="0">70</tspan></text><text transform="translate(559.53 359.69)" fill="#ffebb3" font-family="GreyscaleBasic-Bold, GreyscaleBasic" font-size="8.44" font-weight="700" stroke="#ffebb3" stroke-linecap="round" stroke-linejoin="round" stroke-width=".34"><tspan x="0" y="0">71</tspan></text><text transform="translate(527.62 346.38)" fill="#ffebb3" font-family="GreyscaleBasic-Bold, GreyscaleBasic" font-size="8.44" font-weight="700" stroke="#ffebb3" stroke-linecap="round" stroke-linejoin="round" stroke-width=".34"><tspan x="0" y="0">72</tspan></text><text transform="translate(462.96 359.69)" fill="#ffebb3" font-family="GreyscaleBasic-Bold, GreyscaleBasic" font-size="8.44" font-weight="700" stroke="#ffebb3" stroke-linecap="round" stroke-linejoin="round" stroke-width=".34"><tspan x="0" y="0">73-75</tspan></text><text transform="translate(414.44 359.69)" fill="#ffebb3" font-family="GreyscaleBasic-Bold, GreyscaleBasic" font-size="8.44" font-weight="700" stroke="#ffebb3" stroke-linecap="round" stroke-linejoin="round" stroke-width=".34"><tspan x="0" y="0">76</tspan></text><text transform="translate(385.13 361.46)" fill="#ffebb3" font-family="GreyscaleBasic-Bold, GreyscaleBasic" font-size="8.44" font-weight="700" stroke="#ffebb3" stroke-linecap="round" stroke-linejoin="round" stroke-width=".34"><tspan x="0" y="0">77</tspan></text><text transform="translate(382.25 408.98)" fill="#ffebb3" font-family="GreyscaleBasic-Bold, GreyscaleBasic" font-size="8.44" font-weight="700" stroke="#ffebb3" stroke-linecap="round" stroke-linejoin="round" stroke-width=".34"><tspan x="0" y="0">78</tspan></text><text transform="translate(414.45 420.32)" fill="#ffebb3" font-family="GreyscaleBasic-Bold, GreyscaleBasic" font-size="8.44" font-weight="700" stroke="#ffebb3" stroke-linecap="round" stroke-linejoin="round" stroke-width=".34"><tspan x="0" y="0">79</tspan></text><text transform="translate(449.76 420.32)" fill="#ffebb3" font-family="GreyscaleBasic-Bold, GreyscaleBasic" font-size="8.44" font-weight="700" stroke="#ffebb3" stroke-linecap="round" stroke-linejoin="round" stroke-width=".34"><tspan x="0" y="0">80</tspan></text><text transform="translate(499.61 420.32)" fill="#ffebb3" font-family="GreyscaleBasic-Bold, GreyscaleBasic" font-size="8.44" font-weight="700" stroke="#ffebb3" stroke-linecap="round" stroke-linejoin="round" stroke-width=".34"><tspan x="0" y="0">81-82</tspan></text><text transform="translate(557.69 420.32)" fill="#ffebb3" font-family="GreyscaleBasic-Bold, GreyscaleBasic" font-size="8.44" font-weight="700" stroke="#ffebb3" stroke-linecap="round" stroke-linejoin="round" stroke-width=".34"><tspan x="0" y="0">83</tspan></text><text transform="translate(610.03 420.32)" fill="#ffebb3" font-family="GreyscaleBasic-Bold, GreyscaleBasic" font-size="8.44" font-weight="700" stroke="#ffebb3" stroke-linecap="round" stroke-linejoin="round" stroke-width=".34"><tspan x="0" y="0">85</tspan></text><text transform="translate(835 561.03)" fill="#00173f" font-family="GreyscaleBasic-Bold, GreyscaleBasic" font-size="10.13" font-weight="700"><tspan x="0" y="0">OVAL</tspan><tspan x="-4.87" y="12.15">ATRIUM</tspan></text><text transform="translate(918.5 398.95)" fill="#00173f" font-family="GreyscaleBasic-Bold, GreyscaleBasic" font-size="10.13" font-weight="700"><tspan x="0" y="0">LINEAR</tspan><tspan x="-1.17" y="12.15">ATRIUM</tspan></text><text transform="translate(446.78 482.43)" fill="#00173f" font-family="GreyscaleBasic-Bold, GreyscaleBasic" font-size="10.13" font-weight="700"><tspan x="0" y="0">OVAL EAST</tspan><tspan x="8.18" y="12.15">ATRIUM</tspan></text><text transform="translate(500.28 285.97)" fill="#00173f" font-family="GreyscaleBasic-Bold, GreyscaleBasic" font-size="10.13" font-weight="700"><tspan x="0" y="0">LINEAR EAST</tspan><tspan x="11.88" y="12.15">ATRIUM</tspan></text><text transform="translate(675.69 293.88)" fill="#00173f" font-family="GreyscaleBasic-Bold, GreyscaleBasic" font-size="10.13" font-weight="700"><tspan x="0" y="0">VOID</tspan><tspan x="-6.77" y="12.15">ATRIUM</tspan></text><text transform="translate(610.43 689.44)" fill="#00173f" font-family="GreyscaleBasic-Bold, GreyscaleBasic" font-size="10.13" font-weight="700"><tspan x="0" y="0">OUTDOOR</tspan><tspan x="9.68" y="12.15">PARK</tspan></text><text transform="translate(765.27 701.57)" fill="#00173f" font-family="GreyscaleBasic-Bold, GreyscaleBasic" font-size="8.44" font-weight="700"><tspan x="0" y="0">EXPRESS</tspan><tspan x="-5.5" y="10.13">ESCALATOR</tspan></text><text transform="translate(957.66 717.26)" fill="#00173f" font-family="GreyscaleBasic-Bold, GreyscaleBasic" font-size="8.44" font-weight="700"><tspan x="0" y="0">NORTH</tspan><tspan x=".44" y="10.13">LOBBY</tspan></text><text transform="translate(706.23 82.13)" fill="#ffebb3" font-family="GreyscaleBasic-Bold, GreyscaleBasic" font-size="8.44" font-weight="700"><tspan x="0" y="0">SOUTH LOBBY</tspan></text><text transform="translate(265.63 423.05)" fill="#00173f" font-family="GreyscaleBasic-Bold, GreyscaleBasic" font-size="8.44" font-weight="700"><tspan x="0" y="0">EAST</tspan><tspan x="-3.33" y="10.13">LOBBY</tspan></text><text transform="translate(222.99 609.82)" fill="#ffebb3" font-family="GreyscaleBasic-Bold, GreyscaleBasic" font-size="8.44" font-weight="700"><tspan x="0" y="0">OFFICE</tspan><tspan x="-1.32" y="10.13">TOWER</tspan><tspan x="-.29" y="20.26">LOBBY</tspan></text><text transform="translate(386.86 210.8)" fill="#ffebb3" font-family="GreyscaleBasic-Bold, GreyscaleBasic" font-size="8.44" font-weight="700"><tspan x="0" y="0">VERTUE / SKY RESIDENCE LOBBY</tspan></text><text transform="translate(295.34 95.24)" fill="#ffebb3" font-family="GreyscaleBasic-Bold, GreyscaleBasic" font-size="8.44" font-weight="700"><tspan x="0" y="0">SKYLOFT / HOTEL CIPUTRA WORLD SURABAYA</tspan></text><text transform="translate(78.57 422.54)" fill="#ffebb3" font-family="GreyscaleBasic-Bold, GreyscaleBasic" font-size="8.44" font-weight="700" stroke="#ffebb3" stroke-miterlimit="10" stroke-width=".34"><tspan x="0" y="0">MPH</tspan><tspan x="-4.35" y="10.13">LOBBY</tspan></text><g><path d="M696.3,213.25c-.78,0-1.41-.63-1.41-1.4v-13.15c0-.78.63-1.41,1.41-1.41h13.16c.78,0,1.4.63,1.4,1.41v13.15c0,.77-.62,1.4-1.4,1.4h-13.16Z" fill="#f3ecda"></path><path d="M709.46,197.53c.64,0,1.16.52,1.16,1.16v13.16c0,.64-.52,1.16-1.16,1.16h-13.16c-.64,0-1.16-.52-1.16-1.16v-13.16c0-.64.52-1.16,1.16-1.16h13.16M709.46,197.04h-13.16c-.91,0-1.64.74-1.64,1.65v13.16c0,.9.73,1.64,1.64,1.64h13.16c.91,0,1.64-.75,1.64-1.64v-13.16c0-.91-.74-1.65-1.64-1.65" fill="#00173f"></path><path d="M698.74,210.11v-.57h1.86c.37,0,.73-.18.95-.48l4.21-5.73h1.26c.66,0,1.18-.53,1.18-1.18s-.53-1.18-1.18-1.18h-1.86c-.37,0-.73.18-.95.48l-4.21,5.72h-1.26c-.66,0-1.18.53-1.18,1.18s.52,1.18,1.18,1.18v.57c-.96,0-1.74-.78-1.74-1.75s.78-1.73,1.74-1.73h.98l4.04-5.5c.33-.44.85-.71,1.4-.71h2.15v.02c.83.13,1.46.85,1.46,1.71,0,.96-.79,1.74-1.75,1.74h-.97l-4.04,5.5c-.33.44-.85.72-1.4.72h-1.86Z" fill="#00173f"></path></g><g><path d="M435.15,280.29c-.78,0-1.41-.63-1.41-1.4v-13.15c0-.78.63-1.41,1.41-1.41h13.16c.78,0,1.4.63,1.4,1.41v13.15c0,.77-.62,1.4-1.4,1.4h-13.16Z" fill="#f3ecda"></path><path d="M448.31,264.57c.64,0,1.16.52,1.16,1.16v13.16c0,.64-.52,1.16-1.16,1.16h-13.16c-.64,0-1.16-.52-1.16-1.16v-13.16c0-.64.52-1.16,1.16-1.16h13.16M448.31,264.08h-13.16c-.91,0-1.64.74-1.64,1.65v13.16c0,.9.73,1.64,1.64,1.64h13.16c.91,0,1.64-.75,1.64-1.64v-13.16c0-.91-.74-1.65-1.64-1.65" fill="#00173f"></path><path d="M437.59,277.15v-.57h1.86c.37,0,.73-.18.95-.48l4.21-5.73h1.26c.66,0,1.18-.53,1.18-1.18s-.53-1.18-1.18-1.18h-1.86c-.37,0-.73.18-.95.48l-4.21,5.72h-1.26c-.66,0-1.18.53-1.18,1.18s.52,1.18,1.18,1.18v.57c-.96,0-1.74-.78-1.74-1.75s.78-1.73,1.74-1.73h.98l4.04-5.5c.33-.44.85-.71,1.4-.71h2.15v.02c.83.13,1.46.85,1.46,1.71,0,.96-.79,1.74-1.75,1.74h-.97l-4.04,5.5c-.33.44-.85.72-1.4.72h-1.86Z" fill="#00173f"></path></g><g><path d="M503.74,511.21c-.78,0-1.41-.63-1.41-1.4v-13.15c0-.78.63-1.41,1.41-1.41h13.16c.78,0,1.4.63,1.4,1.41v13.15c0,.77-.62,1.4-1.4,1.4h-13.16Z" fill="#f3ecda"></path><path d="M516.91,495.48c.64,0,1.16.52,1.16,1.16v13.16c0,.64-.52,1.16-1.16,1.16h-13.16c-.64,0-1.16-.52-1.16-1.16v-13.16c0-.64.52-1.16,1.16-1.16h13.16M516.91,495h-13.16c-.91,0-1.64.74-1.64,1.65v13.16c0,.9.73,1.64,1.64,1.64h13.16c.91,0,1.64-.75,1.64-1.64v-13.16c0-.91-.74-1.65-1.64-1.65" fill="#00173f"></path><path d="M506.19,508.07v-.57h1.86c.37,0,.73-.18.95-.48l4.21-5.73h1.26c.66,0,1.18-.53,1.18-1.18s-.53-1.18-1.18-1.18h-1.86c-.37,0-.73.18-.95.48l-4.21,5.72h-1.26c-.66,0-1.18.53-1.18,1.18s.52,1.18,1.18,1.18v.57c-.96,0-1.74-.78-1.74-1.75s.78-1.73,1.74-1.73h.98l4.04-5.5c.33-.44.85-.71,1.4-.71h2.15v.02c.83.13,1.46.85,1.46,1.71,0,.96-.79,1.74-1.75,1.74h-.97l-4.04,5.5c-.33.44-.85.72-1.4.72h-1.86Z" fill="#00173f"></path></g><g><path d="M776.32,442.69c-.78,0-1.41-.63-1.41-1.4v-13.15c0-.78.63-1.41,1.41-1.41h13.16c.78,0,1.4.63,1.4,1.41v13.15c0,.77-.62,1.4-1.4,1.4h-13.16Z" fill="#f3ecda"></path><path d="M789.48,426.97c.64,0,1.16.52,1.16,1.16v13.16c0,.64-.52,1.16-1.16,1.16h-13.16c-.64,0-1.16-.52-1.16-1.16v-13.16c0-.64.52-1.16,1.16-1.16h13.16M789.48,426.48h-13.16c-.91,0-1.64.74-1.64,1.65v13.16c0,.9.73,1.64,1.64,1.64h13.16c.91,0,1.64-.75,1.64-1.64v-13.16c0-.91-.74-1.65-1.64-1.65" fill="#00173f"></path><path d="M778.76,439.56v-.57h1.86c.37,0,.73-.18.95-.48l4.21-5.73h1.26c.66,0,1.18-.53,1.18-1.18s-.53-1.18-1.18-1.18h-1.86c-.37,0-.73.18-.95.48l-4.21,5.72h-1.26c-.66,0-1.18.53-1.18,1.18s.52,1.18,1.18,1.18v.57c-.96,0-1.74-.78-1.74-1.75s.78-1.73,1.74-1.73h.98l4.04-5.5c.33-.44.85-.71,1.4-.71h2.15v.02c.83.13,1.46.85,1.46,1.71,0,.96-.79,1.74-1.75,1.74h-.97l-4.04,5.5c-.33.44-.85.72-1.4.72h-1.86Z" fill="#00173f"></path></g><g><path d="M839.28,425.44c-.78,0-1.41-.63-1.41-1.4v-13.15c0-.78.63-1.41,1.41-1.41h13.16c.78,0,1.4.63,1.4,1.41v13.15c0,.77-.62,1.4-1.4,1.4h-13.16Z" fill="#f3ecda"></path><path d="M852.44,409.72c.64,0,1.16.52,1.16,1.16v13.16c0,.64-.52,1.16-1.16,1.16h-13.16c-.64,0-1.16-.52-1.16-1.16v-13.16c0-.64.52-1.16,1.16-1.16h13.16M852.44,409.23h-13.16c-.91,0-1.64.74-1.64,1.65v13.16c0,.9.73,1.64,1.64,1.64h13.16c.91,0,1.64-.75,1.64-1.64v-13.16c0-.91-.74-1.65-1.64-1.65" fill="#00173f"></path><path d="M841.72,422.31v-.57h1.86c.37,0,.73-.18.95-.48l4.21-5.73h1.26c.66,0,1.18-.53,1.18-1.18s-.53-1.18-1.18-1.18h-1.86c-.37,0-.73.18-.95.48l-4.21,5.72h-1.26c-.66,0-1.18.53-1.18,1.18s.52,1.18,1.18,1.18v.57c-.96,0-1.74-.78-1.74-1.75s.78-1.73,1.74-1.73h.98l4.04-5.5c.33-.44.85-.71,1.4-.71h2.15v.02c.83.13,1.46.85,1.46,1.71,0,.96-.79,1.74-1.75,1.74h-.97l-4.04,5.5c-.33.44-.85.72-1.4.72h-1.86Z" fill="#00173f"></path></g><g><path d="M1064.03,425.44c-.78,0-1.41-.63-1.41-1.4v-13.15c0-.78.63-1.41,1.41-1.41h13.16c.78,0,1.4.63,1.4,1.41v13.15c0,.77-.62,1.4-1.4,1.4h-13.16Z" fill="#f3ecda"></path><path d="M1077.2,409.72c.64,0,1.16.52,1.16,1.16v13.16c0,.64-.52,1.16-1.16,1.16h-13.16c-.64,0-1.16-.52-1.16-1.16v-13.16c0-.64.52-1.16,1.16-1.16h13.16M1077.2,409.23h-13.16c-.91,0-1.64.74-1.64,1.65v13.16c0,.9.73,1.64,1.64,1.64h13.16c.91,0,1.64-.75,1.64-1.64v-13.16c0-.91-.74-1.65-1.64-1.65" fill="#00173f"></path><path d="M1066.48,422.31v-.57h1.86c.37,0,.73-.18.95-.48l4.21-5.73h1.26c.66,0,1.18-.53,1.18-1.18s-.53-1.18-1.18-1.18h-1.86c-.37,0-.73.18-.95.48l-4.21,5.72h-1.26c-.66,0-1.18.53-1.18,1.18s.52,1.18,1.18,1.18v.57c-.96,0-1.74-.78-1.74-1.75s.78-1.73,1.74-1.73h.98l4.04-5.5c.33-.44.85-.71,1.4-.71h2.15v.02c.83.13,1.46.85,1.46,1.71,0,.96-.79,1.74-1.75,1.74h-.97l-4.04,5.5c-.33.44-.85.72-1.4.72h-1.86Z" fill="#00173f"></path></g><g><path d="M1038.91,518.76c-.78,0-1.41-.63-1.41-1.4v-13.15c0-.78.63-1.41,1.41-1.41h13.16c.78,0,1.4.63,1.4,1.41v13.15c0,.77-.62,1.4-1.4,1.4h-13.16Z" fill="#f3ecda"></path><path d="M1052.08,503.04c.64,0,1.16.52,1.16,1.16v13.16c0,.64-.52,1.16-1.16,1.16h-13.16c-.64,0-1.16-.52-1.16-1.16v-13.16c0-.64.52-1.16,1.16-1.16h13.16M1052.08,502.55h-13.16c-.91,0-1.64.74-1.64,1.65v13.16c0,.9.73,1.64,1.64,1.64h13.16c.91,0,1.64-.75,1.64-1.64v-13.16c0-.91-.74-1.65-1.64-1.65" fill="#00173f"></path><path d="M1041.35,515.63v-.57h1.86c.37,0,.73-.18.95-.48l4.21-5.73h1.26c.66,0,1.18-.53,1.18-1.18s-.53-1.18-1.18-1.18h-1.86c-.37,0-.73.18-.95.48l-4.21,5.72h-1.26c-.66,0-1.18.53-1.18,1.18s.52,1.18,1.18,1.18v.57c-.96,0-1.74-.78-1.74-1.75s.78-1.73,1.74-1.73h.98l4.04-5.5c.33-.44.85-.71,1.4-.71h2.15v.02c.83.13,1.46.85,1.46,1.71,0,.96-.79,1.74-1.75,1.74h-.97l-4.04,5.5c-.33.44-.85.72-1.4.72h-1.86Z" fill="#00173f"></path></g><g><path d="M744.55,681.94c-.78,0-1.41-.63-1.41-1.4v-13.15c0-.78.63-1.41,1.41-1.41h13.16c.78,0,1.4.63,1.4,1.41v13.15c0,.77-.62,1.4-1.4,1.4h-13.16Z" fill="#f3ecda"></path><path d="M757.71,666.21c.64,0,1.16.52,1.16,1.16v13.16c0,.64-.52,1.16-1.16,1.16h-13.16c-.64,0-1.16-.52-1.16-1.16v-13.16c0-.64.52-1.16,1.16-1.16h13.16M757.71,665.73h-13.16c-.91,0-1.64.74-1.64,1.65v13.16c0,.9.73,1.64,1.64,1.64h13.16c.91,0,1.64-.75,1.64-1.64v-13.16c0-.91-.74-1.65-1.64-1.65" fill="#00173f"></path><path d="M746.99,678.8v-.57h1.86c.37,0,.73-.18.95-.48l4.21-5.73h1.26c.66,0,1.18-.53,1.18-1.18s-.53-1.18-1.18-1.18h-1.86c-.37,0-.73.18-.95.48l-4.21,5.72h-1.26c-.66,0-1.18.53-1.18,1.18s.52,1.18,1.18,1.18v.57c-.96,0-1.74-.78-1.74-1.75s.78-1.73,1.74-1.73h.98l4.04-5.5c.33-.44.85-.71,1.4-.71h2.15v.02c.83.13,1.46.85,1.46,1.71,0,.96-.79,1.74-1.75,1.74h-.97l-4.04,5.5c-.33.44-.85.72-1.4.72h-1.86Z" fill="#00173f"></path></g><g><path d="M396.44,545.18c-.78,0-1.41-.63-1.41-1.4v-13.15c0-.78.63-1.41,1.41-1.41h13.16c.78,0,1.4.63,1.4,1.41v13.15c0,.77-.62,1.4-1.4,1.4h-13.16Z" fill="#f3ecda"></path><path d="M409.6,529.45c.64,0,1.16.52,1.16,1.16v13.16c0,.64-.52,1.16-1.16,1.16h-13.16c-.64,0-1.16-.52-1.16-1.16v-13.16c0-.64.52-1.16,1.16-1.16h13.16M409.6,528.97h-13.16c-.91,0-1.64.74-1.64,1.65v13.16c0,.9.73,1.64,1.64,1.64h13.16c.91,0,1.64-.75,1.64-1.64v-13.16c0-.91-.74-1.65-1.64-1.65" fill="#00173f"></path><path d="M398.88,542.04v-.57h1.86c.37,0,.73-.18.95-.48l4.21-5.73h1.26c.66,0,1.18-.53,1.18-1.18s-.53-1.18-1.18-1.18h-1.86c-.37,0-.73.18-.95.48l-4.21,5.72h-1.26c-.66,0-1.18.53-1.18,1.18s.52,1.18,1.18,1.18v.57c-.96,0-1.74-.78-1.74-1.75s.78-1.73,1.74-1.73h.98l4.04-5.5c.33-.44.85-.71,1.4-.71h2.15v.02c.83.13,1.46.85,1.46,1.71,0,.96-.79,1.74-1.75,1.74h-.97l-4.04,5.5c-.33.44-.85.72-1.4.72h-1.86Z" fill="#00173f"></path></g><g><path d="M236.64,302.57c-.78,0-1.41-.63-1.41-1.4v-13.15c0-.78.63-1.41,1.41-1.41h13.16c.78,0,1.4.63,1.4,1.41v13.15c0,.77-.62,1.4-1.4,1.4h-13.16Z" fill="#f3ecda"></path><path d="M249.8,286.85c.64,0,1.16.52,1.16,1.16v13.16c0,.64-.52,1.16-1.16,1.16h-13.16c-.64,0-1.16-.52-1.16-1.16v-13.16c0-.64.52-1.16,1.16-1.16h13.16M249.8,286.37h-13.16c-.91,0-1.64.74-1.64,1.65v13.16c0,.9.73,1.64,1.64,1.64h13.16c.91,0,1.64-.75,1.64-1.64v-13.16c0-.91-.74-1.65-1.64-1.65" fill="#00173f"></path><path d="M239.08,299.44v-.57h1.86c.37,0,.73-.18.95-.48l4.21-5.73h1.26c.66,0,1.18-.53,1.18-1.18s-.53-1.18-1.18-1.18h-1.86c-.37,0-.73.18-.95.48l-4.21,5.72h-1.26c-.66,0-1.18.53-1.18,1.18s.52,1.18,1.18,1.18v.57c-.96,0-1.74-.78-1.74-1.75s.78-1.73,1.74-1.73h.98l4.04-5.5c.33-.44.85-.71,1.4-.71h2.15v.02c.83.13,1.46.85,1.46,1.71,0,.96-.79,1.74-1.75,1.74h-.97l-4.04,5.5c-.33.44-.85.72-1.4.72h-1.86Z" fill="#00173f"></path></g><g><path d="M1095.09,425.45c-.78,0-1.41-.64-1.41-1.41v-13.16c0-.78.63-1.41,1.41-1.41h13.17c.78,0,1.4.63,1.4,1.41v13.16c0,.77-.63,1.41-1.4,1.41h-13.17Z" fill="#f3ecda"></path><path d="M1108.26,409.72c.64,0,1.16.52,1.16,1.16v13.16c0,.64-.52,1.17-1.16,1.17h-13.17c-.64,0-1.16-.52-1.16-1.17v-13.16c0-.64.52-1.16,1.16-1.16h13.17M1108.26,409.23h-13.17c-.91,0-1.65.74-1.65,1.64v13.16c0,.91.73,1.65,1.65,1.65h13.17c.91,0,1.65-.74,1.65-1.65v-13.16c0-.91-.74-1.64-1.65-1.64" fill="#00173f"></path><path d="M1100.85,418.5s-.06,0-.08.03c-.02.02-.03.05-.03.09v1.89s0,.06.03.08c.02.02.05.02.08.02.03,0,.06,0,.08-.02.02-.02.03-.05.03-.08v-1.89s-.01-.07-.03-.09c-.02-.02-.05-.03-.08-.03M1100.3,420.39h-1.01v-1.77s-.01-.07-.02-.09c-.02-.02-.05-.03-.08-.03s-.07,0-.09.03c-.02.02-.03.05-.03.09v1.89s.01.06.03.08c.02.02.05.02.09.02h1.11s.06,0,.08-.02c.02-.02.03-.05.03-.08,0-.03-.01-.05-.03-.09-.02-.01-.05-.04-.08-.04M1104.82,415.87h-6.29c-.33,0-.59.26-.59.59v6.29c0,.32.26.58.59.58h6.29c.32,0,.58-.27.58-.58v-6.29c0-.33-.26-.59-.58-.59M1104.84,422.75s-.01.02-.02.02h-6.29s-.03-.02-.03-.02v-6.29s.02-.02.03-.02h6.29s.02.01.02.02v6.29ZM1104.25,418.5h-1.21s-.05,0-.08.03c-.02.02-.04.05-.04.09,0,.03.01.06.04.07.02.02.05.03.08.03h.5v1.79s.01.06.03.08c.02.02.04.02.08.02.03,0,.06,0,.08-.02.02-.02.03-.05.03-.08v-1.79h.49s.07-.01.08-.03c.02-.01.03-.03.03-.07,0-.04-.01-.07-.03-.09-.02-.02-.05-.03-.08-.03M1102.55,418.5h-1.15s-.05,0-.07.03c-.02.02-.03.05-.03.09v1.89s.01.06.03.08c.02.02.05.02.07.02.04,0,.06,0,.09-.02.02-.02.03-.05.03-.08v-.93h.9s.07-.02.08-.03c.02-.02.04-.05.04-.08,0-.03-.01-.05-.04-.08-.01-.01-.04-.03-.08-.03h-.9v-.63h1.03s.06-.01.08-.03c.01-.01.02-.03.02-.07,0-.04-.01-.07-.02-.09-.02-.02-.05-.03-.08-.03M1101.65,413.68s.02.09.05.13l1.43,1.43s.08.05.13.05c.02,0,.04,0,.07-.01.07-.03.11-.09.11-.17v-3.33c0-.1-.08-.18-.18-.18s-.19.08-.19.18v2.89l-1.12-1.11s-.08-.06-.13-.06c-.04,0-.09.03-.13.06-.03.03-.05.08-.05.12M1103.67,415.28s.05.01.07.01c.05,0,.1-.02.13-.05l1.43-1.43s.05-.08.05-.13-.02-.1-.05-.12c-.04-.03-.08-.06-.13-.06-.04,0-.09.03-.13.06l-1.12,1.11v-2.89c0-.1-.08-.18-.19-.18-.1,0-.18.08-.18.18v3.33c0,.08.04.14.11.17M1100.1,415.29c.1,0,.18-.08.18-.18v-2.9l1.12,1.13s.09.05.13.05c.04,0,.09-.01.13-.05.03-.04.05-.09.05-.13s-.02-.09-.05-.13l-1.43-1.43s-.09-.06-.13-.06c-.02,0-.04,0-.07.01-.07.04-.11.09-.11.17v3.33c0,.1.08.18.18.18M1098.19,413.38s.09-.01.13-.05l1.12-1.13v2.9c0,.1.08.18.18.18s.18-.08.18-.18v-3.33c0-.08-.05-.13-.11-.17-.02-.01-.04-.01-.07-.01-.04,0-.09.02-.13.06l-1.43,1.43s-.05.08-.05.13.02.09.05.13c.04.04.08.05.13.05" fill="#00173f"></path></g><g><path d="M746.15,131.48c-.78,0-1.41-.64-1.41-1.41v-13.16c0-.78.63-1.41,1.41-1.41h13.17c.78,0,1.4.63,1.4,1.41v13.16c0,.77-.63,1.41-1.4,1.41h-13.17Z" fill="#f3ecda"></path><path d="M759.32,115.75c.64,0,1.16.52,1.16,1.16v13.16c0,.64-.52,1.17-1.16,1.17h-13.17c-.64,0-1.16-.52-1.16-1.17v-13.16c0-.64.52-1.16,1.16-1.16h13.17M759.32,115.27h-13.17c-.91,0-1.65.74-1.65,1.64v13.16c0,.91.73,1.65,1.65,1.65h13.17c.91,0,1.65-.74,1.65-1.65v-13.16c0-.91-.74-1.64-1.65-1.64" fill="#00173f"></path><path d="M751.91,124.54s-.06,0-.08.03c-.02.02-.03.05-.03.09v1.89s0,.06.03.08c.02.02.05.02.08.02.03,0,.06,0,.08-.02.02-.02.03-.05.03-.08v-1.89s-.01-.07-.03-.09c-.02-.02-.05-.03-.08-.03M751.37,126.42h-1.01v-1.77s-.01-.07-.02-.09c-.02-.02-.05-.03-.08-.03s-.07,0-.09.03c-.02.02-.03.05-.03.09v1.89s.01.06.03.08c.02.02.05.02.09.02h1.11s.06,0,.08-.02c.02-.02.03-.05.03-.08,0-.03-.01-.05-.03-.09-.02-.01-.05-.04-.08-.04M755.88,121.9h-6.29c-.33,0-.59.26-.59.59v6.29c0,.32.26.58.59.58h6.29c.32,0,.58-.27.58-.58v-6.29c0-.33-.26-.59-.58-.59M755.91,128.78s-.01.02-.02.02h-6.29s-.03-.02-.03-.02v-6.29s.02-.02.03-.02h6.29s.02.01.02.02v6.29ZM755.32,124.54h-1.21s-.05,0-.08.03c-.02.02-.04.05-.04.09,0,.03.01.06.04.07.02.02.05.03.08.03h.5v1.79s.01.06.03.08c.02.02.04.02.08.02.03,0,.06,0,.08-.02.02-.02.03-.05.03-.08v-1.79h.49s.07-.01.08-.03c.02-.01.03-.03.03-.07,0-.04-.01-.07-.03-.09-.02-.02-.05-.03-.08-.03M753.61,124.54h-1.15s-.05,0-.07.03c-.02.02-.03.05-.03.09v1.89s.01.06.03.08c.02.02.05.02.07.02.04,0,.06,0,.09-.02.02-.02.03-.05.03-.08v-.93h.9s.07-.02.08-.03c.02-.02.04-.05.04-.08,0-.03-.01-.05-.04-.08-.01-.01-.04-.03-.08-.03h-.9v-.63h1.03s.06-.01.08-.03c.01-.01.02-.03.02-.07,0-.04-.01-.07-.02-.09-.02-.02-.05-.03-.08-.03M752.71,119.71s.02.09.05.13l1.43,1.43s.08.05.13.05c.02,0,.04,0,.07-.01.07-.03.11-.09.11-.17v-3.33c0-.1-.08-.18-.18-.18s-.19.08-.19.18v2.89l-1.12-1.11s-.08-.06-.13-.06c-.04,0-.09.03-.13.06-.03.03-.05.08-.05.12M754.74,121.31s.05.01.07.01c.05,0,.1-.02.13-.05l1.43-1.43s.05-.08.05-.13-.02-.1-.05-.12c-.04-.03-.08-.06-.13-.06-.04,0-.09.03-.13.06l-1.12,1.11v-2.89c0-.1-.08-.18-.19-.18-.1,0-.18.08-.18.18v3.33c0,.08.04.14.11.17M751.16,121.32c.1,0,.18-.08.18-.18v-2.9l1.12,1.13s.09.05.13.05c.04,0,.09-.01.13-.05.03-.04.05-.09.05-.13s-.02-.09-.05-.13l-1.43-1.43s-.09-.06-.13-.06c-.02,0-.04,0-.07.01-.07.04-.11.09-.11.17v3.33c0,.1.08.18.18.18M749.26,119.42s.09-.01.13-.05l1.12-1.13v2.9c0,.1.08.18.18.18s.18-.08.18-.18v-3.33c0-.08-.05-.13-.11-.17-.02-.01-.04-.01-.07-.01-.04,0-.09.02-.13.06l-1.43,1.43s-.05.08-.05.13.02.09.05.13c.04.04.08.05.13.05" fill="#00173f"></path></g><g><path d="M488.37,581.89c-.78,0-1.41-.64-1.41-1.41v-13.16c0-.78.63-1.41,1.41-1.41h13.17c.78,0,1.4.63,1.4,1.41v13.16c0,.77-.63,1.41-1.4,1.41h-13.17Z" fill="#f3ecda"></path><path d="M501.54,566.16c.64,0,1.16.52,1.16,1.16v13.16c0,.64-.52,1.17-1.16,1.17h-13.17c-.64,0-1.16-.52-1.16-1.17v-13.16c0-.64.52-1.16,1.16-1.16h13.17M501.54,565.68h-13.17c-.91,0-1.65.74-1.65,1.64v13.16c0,.91.73,1.65,1.65,1.65h13.17c.91,0,1.65-.74,1.65-1.65v-13.16c0-.91-.74-1.64-1.65-1.64" fill="#00173f"></path><path d="M494.13,574.94s-.06,0-.08.03c-.02.02-.03.05-.03.09v1.89s0,.06.03.08c.02.02.05.02.08.02.03,0,.06,0,.08-.02.02-.02.03-.05.03-.08v-1.89s-.01-.07-.03-.09c-.02-.02-.05-.03-.08-.03M493.58,576.83h-1.01v-1.77s-.01-.07-.02-.09c-.02-.02-.05-.03-.08-.03s-.07,0-.09.03c-.02.02-.03.05-.03.09v1.89s.01.06.03.08c.02.02.05.02.09.02h1.11s.06,0,.08-.02c.02-.02.03-.05.03-.08,0-.03-.01-.05-.03-.09-.02-.01-.05-.04-.08-.04M498.1,572.31h-6.29c-.33,0-.59.26-.59.59v6.29c0,.32.26.58.59.58h6.29c.32,0,.58-.27.58-.58v-6.29c0-.33-.26-.59-.58-.59M498.12,579.19s-.01.02-.02.02h-6.29s-.03-.02-.03-.02v-6.29s.02-.02.03-.02h6.29s.02.01.02.02v6.29ZM497.53,574.94h-1.21s-.05,0-.08.03c-.02.02-.04.05-.04.09,0,.03.01.06.04.07.02.02.05.03.08.03h.5v1.79s.01.06.03.08c.02.02.04.02.08.02.03,0,.06,0,.08-.02.02-.02.03-.05.03-.08v-1.79h.49s.07-.01.08-.03c.02-.01.03-.03.03-.07,0-.04-.01-.07-.03-.09-.02-.02-.05-.03-.08-.03M495.83,574.94h-1.15s-.05,0-.07.03c-.02.02-.03.05-.03.09v1.89s.01.06.03.08c.02.02.05.02.07.02.04,0,.06,0,.09-.02.02-.02.03-.05.03-.08v-.93h.9s.07-.02.08-.03c.02-.02.04-.05.04-.08,0-.03-.01-.05-.04-.08-.01-.01-.04-.03-.08-.03h-.9v-.63h1.03s.06-.01.08-.03c.01-.01.02-.03.02-.07,0-.04-.01-.07-.02-.09-.02-.02-.05-.03-.08-.03M494.93,570.12s.02.09.05.13l1.43,1.43s.08.05.13.05c.02,0,.04,0,.07-.01.07-.03.11-.09.11-.17v-3.33c0-.1-.08-.18-.18-.18s-.19.08-.19.18v2.89l-1.12-1.11s-.08-.06-.13-.06c-.04,0-.09.03-.13.06-.03.03-.05.08-.05.12M496.95,571.72s.05.01.07.01c.05,0,.1-.02.13-.05l1.43-1.43s.05-.08.05-.13-.02-.1-.05-.12c-.04-.03-.08-.06-.13-.06-.04,0-.09.03-.13.06l-1.12,1.11v-2.89c0-.1-.08-.18-.19-.18-.1,0-.18.08-.18.18v3.33c0,.08.04.14.11.17M493.38,571.73c.1,0,.18-.08.18-.18v-2.9l1.12,1.13s.09.05.13.05c.04,0,.09-.01.13-.05.03-.04.05-.09.05-.13s-.02-.09-.05-.13l-1.43-1.43s-.09-.06-.13-.06c-.02,0-.04,0-.07.01-.07.04-.11.09-.11.17v3.33c0,.1.08.18.18.18M491.47,569.83s.09-.01.13-.05l1.12-1.13v2.9c0,.1.08.18.18.18s.18-.08.18-.18v-3.33c0-.08-.05-.13-.11-.17-.02-.01-.04-.01-.07-.01-.04,0-.09.02-.13.06l-1.43,1.43s-.05.08-.05.13.02.09.05.13c.04.04.08.05.13.05" fill="#00173f"></path></g><g><path d="M262.45,213.11c-.78,0-1.41-.64-1.41-1.41v-13.16c0-.78.63-1.41,1.41-1.41h13.17c.78,0,1.4.63,1.4,1.41v13.16c0,.77-.63,1.41-1.4,1.41h-13.17Z" fill="#f3ecda"></path><path d="M275.62,197.37c.64,0,1.16.52,1.16,1.16v13.16c0,.64-.52,1.17-1.16,1.17h-13.17c-.64,0-1.16-.52-1.16-1.17v-13.16c0-.64.52-1.16,1.16-1.16h13.17M275.62,196.89h-13.17c-.91,0-1.65.74-1.65,1.64v13.16c0,.91.73,1.65,1.65,1.65h13.17c.91,0,1.65-.74,1.65-1.65v-13.16c0-.91-.74-1.64-1.65-1.64" fill="#00173f"></path><path d="M268.2,206.16s-.06,0-.08.03c-.02.02-.03.05-.03.09v1.89s0,.06.03.08c.02.02.05.02.08.02.03,0,.06,0,.08-.02.02-.02.03-.05.03-.08v-1.89s-.01-.07-.03-.09c-.02-.02-.05-.03-.08-.03M267.66,208.05h-1.01v-1.77s-.01-.07-.02-.09c-.02-.02-.05-.03-.08-.03s-.07,0-.09.03c-.02.02-.03.05-.03.09v1.89s.01.06.03.08c.02.02.05.02.09.02h1.11s.06,0,.08-.02c.02-.02.03-.05.03-.08,0-.03-.01-.05-.03-.09-.02-.01-.05-.04-.08-.04M272.18,203.52h-6.29c-.33,0-.59.26-.59.59v6.29c0,.32.26.58.59.58h6.29c.32,0,.58-.27.58-.58v-6.29c0-.33-.26-.59-.58-.59M272.2,210.4s-.01.02-.02.02h-6.29s-.03-.02-.03-.02v-6.29s.02-.02.03-.02h6.29s.02.01.02.02v6.29ZM271.61,206.16h-1.21s-.05,0-.08.03c-.02.02-.04.05-.04.09,0,.03.01.06.04.07.02.02.05.03.08.03h.5v1.79s.01.06.03.08c.02.02.04.02.08.02.03,0,.06,0,.08-.02.02-.02.03-.05.03-.08v-1.79h.49s.07-.01.08-.03c.02-.01.03-.03.03-.07,0-.04-.01-.07-.03-.09-.02-.02-.05-.03-.08-.03M269.9,206.16h-1.15s-.05,0-.07.03c-.02.02-.03.05-.03.09v1.89s.01.06.03.08c.02.02.05.02.07.02.04,0,.06,0,.09-.02.02-.02.03-.05.03-.08v-.93h.9s.07-.02.08-.03c.02-.02.04-.05.04-.08,0-.03-.01-.05-.04-.08-.01-.01-.04-.03-.08-.03h-.9v-.63h1.03s.06-.01.08-.03c.01-.01.02-.03.02-.07,0-.04-.01-.07-.02-.09-.02-.02-.05-.03-.08-.03M269.01,201.33s.02.09.05.13l1.43,1.43s.08.05.13.05c.02,0,.04,0,.07-.01.07-.03.11-.09.11-.17v-3.33c0-.1-.08-.18-.18-.18s-.19.08-.19.18v2.89l-1.12-1.11s-.08-.06-.13-.06c-.04,0-.09.03-.13.06-.03.03-.05.08-.05.12M271.03,202.93s.05.01.07.01c.05,0,.1-.02.13-.05l1.43-1.43s.05-.08.05-.13-.02-.1-.05-.12c-.04-.03-.08-.06-.13-.06-.04,0-.09.03-.13.06l-1.12,1.11v-2.89c0-.1-.08-.18-.19-.18-.1,0-.18.08-.18.18v3.33c0,.08.04.14.11.17M267.46,202.94c.1,0,.18-.08.18-.18v-2.9l1.12,1.13s.09.05.13.05c.04,0,.09-.01.13-.05.03-.04.05-.09.05-.13s-.02-.09-.05-.13l-1.43-1.43s-.09-.06-.13-.06c-.02,0-.04,0-.07.01-.07.04-.11.09-.11.17v3.33c0,.1.08.18.18.18M265.55,201.04s.09-.01.13-.05l1.12-1.13v2.9c0,.1.08.18.18.18s.18-.08.18-.18v-3.33c0-.08-.05-.13-.11-.17-.02-.01-.04-.01-.07-.01-.04,0-.09.02-.13.06l-1.43,1.43s-.05.08-.05.13.02.09.05.13c.04.04.08.05.13.05" fill="#00173f"></path></g><g><path d="M47.73,433.16c-.78,0-1.41-.64-1.41-1.41v-13.16c0-.78.63-1.41,1.41-1.41h13.17c.78,0,1.4.63,1.4,1.41v13.16c0,.77-.63,1.41-1.4,1.41h-13.17Z" fill="#f3ecda"></path><path d="M60.9,417.43c.64,0,1.16.52,1.16,1.16v13.16c0,.64-.52,1.17-1.16,1.17h-13.17c-.64,0-1.16-.52-1.16-1.17v-13.16c0-.64.52-1.16,1.16-1.16h13.17M60.9,416.95h-13.17c-.91,0-1.65.74-1.65,1.64v13.16c0,.91.73,1.65,1.65,1.65h13.17c.91,0,1.65-.74,1.65-1.65v-13.16c0-.91-.74-1.64-1.65-1.64" fill="#00173f"></path><path d="M53.49,426.22s-.06,0-.08.03c-.02.02-.03.05-.03.09v1.89s0,.06.03.08c.02.02.05.02.08.02.03,0,.06,0,.08-.02.02-.02.03-.05.03-.08v-1.89s-.01-.07-.03-.09c-.02-.02-.05-.03-.08-.03M52.94,428.11h-1.01v-1.77s-.01-.07-.02-.09c-.02-.02-.05-.03-.08-.03s-.07,0-.09.03c-.02.02-.03.05-.03.09v1.89s.01.06.03.08c.02.02.05.02.09.02h1.11s.06,0,.08-.02c.02-.02.03-.05.03-.08,0-.03-.01-.05-.03-.09-.02-.01-.05-.04-.08-.04M57.46,423.58h-6.29c-.33,0-.59.26-.59.59v6.29c0,.32.26.58.59.58h6.29c.32,0,.58-.27.58-.58v-6.29c0-.33-.26-.59-.58-.59M57.49,430.46s-.01.02-.02.02h-6.29s-.03-.02-.03-.02v-6.29s.02-.02.03-.02h6.29s.02.01.02.02v6.29ZM56.9,426.22h-1.21s-.05,0-.08.03c-.02.02-.04.05-.04.09,0,.03.01.06.04.07.02.02.05.03.08.03h.5v1.79s.01.06.03.08c.02.02.04.02.08.02.03,0,.06,0,.08-.02.02-.02.03-.05.03-.08v-1.79h.49s.07-.01.08-.03c.02-.01.03-.03.03-.07,0-.04-.01-.07-.03-.09-.02-.02-.05-.03-.08-.03M55.19,426.22h-1.15s-.05,0-.07.03c-.02.02-.03.05-.03.09v1.89s.01.06.03.08c.02.02.05.02.07.02.04,0,.06,0,.09-.02.02-.02.03-.05.03-.08v-.93h.9s.07-.02.08-.03c.02-.02.04-.05.04-.08,0-.03-.01-.05-.04-.08-.01-.01-.04-.03-.08-.03h-.9v-.63h1.03s.06-.01.08-.03c.01-.01.02-.03.02-.07,0-.04-.01-.07-.02-.09-.02-.02-.05-.03-.08-.03M54.29,421.39s.02.09.05.13l1.43,1.43s.08.05.13.05c.02,0,.04,0,.07-.01.07-.03.11-.09.11-.17v-3.33c0-.1-.08-.18-.18-.18s-.19.08-.19.18v2.89l-1.12-1.11s-.08-.06-.13-.06c-.04,0-.09.03-.13.06-.03.03-.05.08-.05.12M56.32,422.99s.05.01.07.01c.05,0,.1-.02.13-.05l1.43-1.43s.05-.08.05-.13-.02-.1-.05-.12c-.04-.03-.08-.06-.13-.06-.04,0-.09.03-.13.06l-1.12,1.11v-2.89c0-.1-.08-.18-.19-.18-.1,0-.18.08-.18.18v3.33c0,.08.04.14.11.17M52.74,423c.1,0,.18-.08.18-.18v-2.9l1.12,1.13s.09.05.13.05c.04,0,.09-.01.13-.05.03-.04.05-.09.05-.13s-.02-.09-.05-.13l-1.43-1.43s-.09-.06-.13-.06c-.02,0-.04,0-.07.01-.07.04-.11.09-.11.17v3.33c0,.1.08.18.18.18M50.84,421.1s.09-.01.13-.05l1.12-1.13v2.9c0,.1.08.18.18.18s.18-.08.18-.18v-3.33c0-.08-.05-.13-.11-.17-.02-.01-.04-.01-.07-.01-.04,0-.09.02-.13.06l-1.43,1.43s-.05.08-.05.13.02.09.05.13c.04.04.08.05.13.05" fill="#00173f"></path></g><g><path d="M1130.57,597.44c-.78,0-1.41-.63-1.41-1.41v-13.15c0-.77.63-1.4,1.41-1.4h13.16c.78,0,1.4.63,1.4,1.4v13.15c0,.78-.62,1.41-1.4,1.41h-13.16Z" fill="#f3ecda"></path><path d="M1143.74,581.71c.63,0,1.16.53,1.16,1.16v13.15c0,.65-.52,1.17-1.16,1.17h-13.16c-.64,0-1.16-.52-1.16-1.17v-13.15c0-.64.52-1.16,1.16-1.16h13.16M1143.74,581.23h-13.16c-.91,0-1.64.74-1.64,1.65v13.15c0,.91.73,1.65,1.64,1.65h13.16c.9,0,1.64-.75,1.64-1.65v-13.15c0-.9-.74-1.65-1.64-1.65" fill="#00173f"></path><path d="M1141.04,584.48c0-.55-.44-.98-.98-.98s-.98.43-.98.98.44.98.98.98.98-.44.98-.98M1139.63,584.48c0-.23.19-.41.42-.41s.41.18.41.41-.19.41-.41.41c-.24,0-.42-.18-.42-.41M1142.52,587.95l-1.7-1.71c-.17-.16-.34-.27-.56-.28-.17,0-.35.1-.43.24-.08.14-.1.29-.1.46,0,.84.51,1.57.96,2.41.43.78.83,1.64.88,2.66h-1.56c-.08,0-.15.03-.2.08-.06.05-.08.12-.08.2v3.1c0,.16.13.28.28.28s.28-.13.28-.28v-2.82h1.57c.07,0,.15-.03.2-.08.05-.05.08-.13.08-.2,0-1.3-.49-2.34-.95-3.21-.48-.87-.9-1.57-.89-2.15,0-.05,0-.08,0-.11.03.02.07.05.11.1l1.71,1.7c.1.11.29.11.4,0,.11-.11.11-.29,0-.4M1137.15,582.89c-.16,0-.29.13-.29.29v12.56c0,.16.13.28.29.28.15,0,.28-.12.28-.28v-12.56c0-.15-.13-.29-.28-.29M1134.25,583.5c-.54,0-.98.43-.98.98s.44.98.98.98.98-.44.98-.98-.44-.98-.98-.98M1134.25,584.89c-.23,0-.42-.18-.42-.41s.19-.41.42-.41.42.18.42.41-.19.41-.42.41M1134.58,586.7c0-.17-.03-.33-.11-.47-.08-.14-.26-.25-.43-.25-.22,0-.38.12-.55.27l-1.7,1.71c-.11.11-.11.29,0,.4.11.11.29.11.4,0l1.7-1.7s.08-.08.11-.09c0,.02.01.08.01.14,0,.34-.13.99-.28,1.74-.15.78-.3,1.69-.3,2.64,0,1.88.59,4.11.6,4.12.03.12.15.2.27.2h.07c.15-.04.24-.2.2-.35,0,0-.15-.53-.29-1.31-.14-.78-.28-1.78-.28-2.66s.14-1.77.28-2.53c.15-.77.3-1.39.3-1.86" fill="#00173f"></path></g><g><path d="M767.65,121.55c-.78,0-1.41-.63-1.41-1.41v-13.15c0-.77.63-1.4,1.41-1.4h13.16c.78,0,1.4.63,1.4,1.4v13.15c0,.78-.62,1.41-1.4,1.41h-13.16Z" fill="#f3ecda"></path><path d="M780.82,105.82c.63,0,1.16.53,1.16,1.16v13.15c0,.65-.52,1.17-1.16,1.17h-13.16c-.64,0-1.16-.52-1.16-1.17v-13.15c0-.64.52-1.16,1.16-1.16h13.16M780.82,105.34h-13.16c-.91,0-1.64.74-1.64,1.65v13.15c0,.91.73,1.65,1.64,1.65h13.16c.9,0,1.64-.75,1.64-1.65v-13.15c0-.9-.74-1.65-1.64-1.65" fill="#00173f"></path><path d="M778.12,108.59c0-.55-.44-.98-.98-.98s-.98.43-.98.98.44.98.98.98.98-.44.98-.98M776.72,108.59c0-.23.19-.41.42-.41s.41.18.41.41-.19.41-.41.41c-.24,0-.42-.18-.42-.41M779.6,112.06l-1.7-1.71c-.17-.16-.34-.27-.56-.28-.17,0-.35.1-.43.24-.08.14-.1.29-.1.46,0,.84.51,1.57.96,2.41.43.78.83,1.64.88,2.66h-1.56c-.08,0-.15.03-.2.08-.06.05-.08.12-.08.2v3.1c0,.16.13.28.28.28s.28-.13.28-.28v-2.82h1.57c.07,0,.15-.03.2-.08.05-.05.08-.13.08-.2,0-1.3-.49-2.34-.95-3.21-.48-.87-.9-1.57-.89-2.15,0-.05,0-.08,0-.11.03.02.07.05.11.1l1.71,1.7c.1.11.29.11.4,0,.11-.11.11-.29,0-.4M774.24,106.99c-.16,0-.29.13-.29.29v12.56c0,.16.13.28.29.28.15,0,.28-.12.28-.28v-12.56c0-.15-.13-.29-.28-.29M771.33,107.61c-.54,0-.98.43-.98.98s.44.98.98.98.98-.44.98-.98-.44-.98-.98-.98M771.33,109c-.23,0-.42-.18-.42-.41s.19-.41.42-.41.42.18.42.41-.19.41-.42.41M771.66,110.8c0-.17-.03-.33-.11-.47-.08-.14-.26-.25-.43-.25-.22,0-.38.12-.55.27l-1.7,1.71c-.11.11-.11.29,0,.4.11.11.29.11.4,0l1.7-1.7s.08-.08.11-.09c0,.02.01.08.01.14,0,.34-.13.99-.28,1.74-.15.78-.3,1.69-.3,2.64,0,1.88.59,4.11.6,4.12.03.12.15.2.27.2h.07c.15-.04.24-.2.2-.35,0,0-.15-.53-.29-1.31-.14-.78-.28-1.78-.28-2.66s.14-1.77.28-2.53c.15-.77.3-1.39.3-1.86" fill="#00173f"></path></g><g><path d="M289.24,208.36c-.78,0-1.41-.63-1.41-1.41v-13.15c0-.77.63-1.4,1.41-1.4h13.16c.78,0,1.4.63,1.4,1.4v13.15c0,.78-.62,1.41-1.4,1.41h-13.16Z" fill="#f3ecda"></path><path d="M302.4,192.63c.63,0,1.16.53,1.16,1.16v13.15c0,.65-.52,1.17-1.16,1.17h-13.16c-.64,0-1.16-.52-1.16-1.17v-13.15c0-.64.52-1.16,1.16-1.16h13.16M302.4,192.15h-13.16c-.91,0-1.64.74-1.64,1.65v13.15c0,.91.73,1.65,1.64,1.65h13.16c.9,0,1.64-.75,1.64-1.65v-13.15c0-.9-.74-1.65-1.64-1.65" fill="#00173f"></path><path d="M299.7,195.4c0-.55-.44-.98-.98-.98s-.98.43-.98.98.44.98.98.98.98-.44.98-.98M298.3,195.4c0-.23.19-.41.42-.41s.41.18.41.41-.19.41-.41.41c-.24,0-.42-.18-.42-.41M301.19,198.87l-1.7-1.71c-.17-.16-.34-.27-.56-.28-.17,0-.35.1-.43.24-.08.14-.1.29-.1.46,0,.84.51,1.57.96,2.41.43.78.83,1.64.88,2.66h-1.56c-.08,0-.15.03-.2.08-.06.05-.08.12-.08.2v3.1c0,.16.13.28.28.28s.28-.13.28-.28v-2.82h1.57c.07,0,.15-.03.2-.08.05-.05.08-.13.08-.2,0-1.3-.49-2.34-.95-3.21-.48-.87-.9-1.57-.89-2.15,0-.05,0-.08,0-.11.03.02.07.05.11.1l1.71,1.7c.1.11.29.11.4,0,.11-.11.11-.29,0-.4M295.82,193.8c-.16,0-.29.13-.29.29v12.56c0,.16.13.28.29.28.15,0,.28-.12.28-.28v-12.56c0-.15-.13-.29-.28-.29M292.91,194.42c-.54,0-.98.43-.98.98s.44.98.98.98.98-.44.98-.98-.44-.98-.98-.98M292.91,195.81c-.23,0-.42-.18-.42-.41s.19-.41.42-.41.42.18.42.41-.19.41-.42.41M293.24,197.61c0-.17-.03-.33-.11-.47-.08-.14-.26-.25-.43-.25-.22,0-.38.12-.55.27l-1.7,1.71c-.11.11-.11.29,0,.4.11.11.29.11.4,0l1.7-1.7s.08-.08.11-.09c0,.02.01.08.01.14,0,.34-.13.99-.28,1.74-.15.78-.3,1.69-.3,2.64,0,1.88.59,4.11.6,4.12.03.12.15.2.27.2h.07c.15-.04.24-.2.2-.35,0,0-.15-.53-.29-1.31-.14-.78-.28-1.78-.28-2.66s.14-1.77.28-2.53c.15-.77.3-1.39.3-1.86" fill="#00173f"></path></g><g><path d="M1130.57,616.36c-.78,0-1.41-.64-1.41-1.41v-13.15c0-.77.63-1.4,1.41-1.4h13.16c.78,0,1.4.63,1.4,1.4v13.15c0,.77-.62,1.41-1.4,1.41h-13.16Z" fill="#f3ecda"></path><path d="M1143.74,600.64c.64,0,1.16.52,1.16,1.16v13.15c0,.64-.52,1.17-1.16,1.17h-13.16c-.64,0-1.16-.53-1.16-1.17v-13.15c0-.64.53-1.16,1.16-1.16h13.16M1143.74,600.16h-13.16c-.9,0-1.64.74-1.64,1.64v13.15c0,.91.74,1.65,1.64,1.65h13.16c.91,0,1.64-.74,1.64-1.65v-13.15c0-.91-.74-1.64-1.64-1.64" fill="#00173f"></path><path d="M1135.51,605.39c.54,0,.98-.44.98-.98s-.44-.97-.98-.97-.98.43-.98.97.44.98.98.98M1135.51,604c.22,0,.41.18.41.41s-.19.42-.41.42-.42-.19-.42-.42.18-.41.42-.41M1138.28,610.71c-.16-.02-.3.08-.33.23-.17,1.04-1.07,1.83-2.14,1.83-1.2,0-2.18-.98-2.18-2.18,0-.86.5-1.6,1.23-1.96.14-.07.2-.24.13-.37-.07-.14-.24-.19-.37-.12-.92.44-1.54,1.37-1.54,2.45,0,1.51,1.23,2.73,2.74,2.73,1.36,0,2.49-.99,2.7-2.29.02-.15-.08-.29-.23-.33M1141.23,611.94c-.05-.15-.21-.23-.37-.18l-.56.21-.71-1.97c-.11-.28-.35-.44-.65-.45-1.26,0-1.87-.23-2.3-.67-.43-.44-.7-1.19-1.09-2.26,0-.01-.01-.03-.01-.04.01.01.03.02.04.03l2.09,1.47c.12.09.3.06.39-.07.09-.13.06-.3-.07-.4l-2.09-1.46c-.22-.14-.37-.25-.6-.26-.09-.01-.24.05-.31.15-.08.1-.09.2-.09.29,0,.16.05.3.11.5.38,1.04.65,1.85,1.21,2.45.57.59,1.39.84,2.71.84,0,0,.04,0,.07.03.03.02.05.05.05.06l.81,2.23c.02.07.08.13.15.16.04.01.08.02.12.02.03,0,.07,0,.1-.02l.83-.3c.15-.05.22-.21.17-.35" fill="#00173f"></path></g><g><path d="M767.65,140.65c-.78,0-1.41-.64-1.41-1.41v-13.15c0-.77.63-1.4,1.41-1.4h13.16c.78,0,1.4.63,1.4,1.4v13.15c0,.77-.62,1.41-1.4,1.41h-13.16Z" fill="#f3ecda"></path><path d="M780.82,124.92c.64,0,1.16.52,1.16,1.16v13.15c0,.64-.52,1.17-1.16,1.17h-13.16c-.64,0-1.16-.53-1.16-1.17v-13.15c0-.64.53-1.16,1.16-1.16h13.16M780.82,124.44h-13.16c-.9,0-1.64.74-1.64,1.64v13.15c0,.91.74,1.65,1.64,1.65h13.16c.91,0,1.64-.74,1.64-1.65v-13.15c0-.91-.74-1.64-1.64-1.64" fill="#00173f"></path><path d="M772.59,129.67c.54,0,.98-.44.98-.98s-.44-.97-.98-.97-.98.43-.98.97.44.98.98.98M772.59,128.28c.22,0,.41.18.41.41s-.19.42-.41.42-.42-.19-.42-.42.18-.41.42-.41M775.36,134.99c-.16-.02-.3.08-.33.23-.17,1.04-1.07,1.83-2.14,1.83-1.2,0-2.18-.98-2.18-2.18,0-.86.5-1.6,1.23-1.96.14-.07.2-.24.13-.37-.07-.14-.24-.19-.37-.12-.92.44-1.54,1.37-1.54,2.45,0,1.51,1.23,2.73,2.74,2.73,1.36,0,2.49-.99,2.7-2.29.02-.15-.08-.29-.23-.33M778.31,136.22c-.05-.15-.21-.23-.37-.18l-.56.21-.71-1.97c-.11-.28-.35-.44-.65-.45-1.26,0-1.87-.23-2.3-.67-.43-.44-.7-1.19-1.09-2.26,0-.01-.01-.03-.01-.04.01.01.03.02.04.03l2.09,1.47c.12.09.3.06.39-.07.09-.13.06-.3-.07-.4l-2.09-1.46c-.22-.14-.37-.25-.6-.26-.09-.01-.24.05-.31.15-.08.1-.09.2-.09.29,0,.16.05.3.11.5.38,1.04.65,1.85,1.21,2.45.57.59,1.39.84,2.71.84,0,0,.04,0,.07.03.03.02.05.05.05.06l.81,2.23c.02.07.08.13.15.16.04.01.08.02.12.02.03,0,.07,0,.1-.02l.83-.3c.15-.05.22-.21.17-.35" fill="#00173f"></path></g><g><path d="M289.24,228.05c-.78,0-1.41-.64-1.41-1.41v-13.15c0-.77.63-1.4,1.41-1.4h13.16c.78,0,1.4.63,1.4,1.4v13.15c0,.77-.62,1.41-1.4,1.41h-13.16Z" fill="#f3ecda"></path><path d="M302.4,212.33c.64,0,1.16.52,1.16,1.16v13.15c0,.64-.52,1.17-1.16,1.17h-13.16c-.64,0-1.16-.53-1.16-1.17v-13.15c0-.64.53-1.16,1.16-1.16h13.16M302.4,211.84h-13.16c-.9,0-1.64.74-1.64,1.64v13.15c0,.91.74,1.65,1.64,1.65h13.16c.91,0,1.64-.74,1.64-1.65v-13.15c0-.91-.74-1.64-1.64-1.64" fill="#00173f"></path><path d="M294.17,217.08c.54,0,.98-.44.98-.98s-.44-.97-.98-.97-.98.43-.98.97.44.98.98.98M294.17,215.69c.22,0,.41.18.41.41s-.19.42-.41.42-.42-.19-.42-.42.18-.41.42-.41M296.94,222.4c-.16-.02-.3.08-.33.23-.17,1.04-1.07,1.83-2.14,1.83-1.2,0-2.18-.98-2.18-2.18,0-.86.5-1.6,1.23-1.96.14-.07.2-.24.13-.37-.07-.14-.24-.19-.37-.12-.92.44-1.54,1.37-1.54,2.45,0,1.51,1.23,2.73,2.74,2.73,1.36,0,2.49-.99,2.7-2.29.02-.15-.08-.29-.23-.33M299.89,223.63c-.05-.15-.21-.23-.37-.18l-.56.21-.71-1.97c-.11-.28-.35-.44-.65-.45-1.26,0-1.87-.23-2.3-.67-.43-.44-.7-1.19-1.09-2.26,0-.01-.01-.03-.01-.04.01.01.03.02.04.03l2.09,1.47c.12.09.3.06.39-.07.09-.13.06-.3-.07-.4l-2.09-1.46c-.22-.14-.37-.25-.6-.26-.09-.01-.24.05-.31.15-.08.1-.09.2-.09.29,0,.16.05.3.11.5.38,1.04.65,1.85,1.21,2.45.57.59,1.39.84,2.71.84,0,0,.04,0,.07.03.03.02.05.05.05.06l.81,2.23c.02.07.08.13.15.16.04.01.08.02.12.02.03,0,.07,0,.1-.02l.83-.3c.15-.05.22-.21.17-.35" fill="#00173f"></path></g><g><path d="M550.4,498.61c-.77,0-1.4-.62-1.4-1.4v-13.16c0-.77.63-1.4,1.4-1.4h13.18c.77,0,1.4.63,1.4,1.4v13.16c0,.78-.63,1.4-1.4,1.4h-13.18Z" fill="#f3ecda"></path><path d="M563.57,482.9c.64,0,1.16.52,1.16,1.15v13.16c0,.64-.52,1.15-1.16,1.15h-13.18c-.64,0-1.15-.52-1.15-1.15v-13.16c0-.63.51-1.15,1.15-1.15h13.18M563.57,482.41h-13.18c-.9,0-1.64.74-1.64,1.64v13.16c0,.91.74,1.65,1.64,1.65h13.18c.91,0,1.65-.74,1.65-1.65v-13.16c0-.9-.74-1.64-1.65-1.64" fill="#00173f"></path><path d="M556.97,496.13c-.56,0-.89-.34-.89-.91v-6.48c0-.27.08-.49.25-.66.17-.17.39-.26.65-.26s.47.08.65.24c.19.17.28.4.28.67v6.48c0,.27-.09.5-.28.67-.18.16-.4.24-.65.24ZM556.97,486.99c-.26,0-.49-.1-.66-.28-.15-.18-.24-.4-.24-.65,0-.27.08-.49.25-.66.17-.17.39-.25.65-.25s.48.08.65.24c.19.17.28.4.28.67,0,.25-.09.48-.27.66-.18.18-.41.27-.66.27Z" fill="#00173f"></path></g><g><path d="M1030.92,494.26c-.77,0-1.4-.62-1.4-1.4v-13.16c0-.77.63-1.4,1.4-1.4h13.18c.77,0,1.4.63,1.4,1.4v13.16c0,.78-.63,1.4-1.4,1.4h-13.18Z" fill="#f3ecda"></path><path d="M1044.1,478.55c.64,0,1.16.52,1.16,1.15v13.16c0,.64-.52,1.15-1.16,1.15h-13.18c-.64,0-1.15-.52-1.15-1.15v-13.16c0-.63.51-1.15,1.15-1.15h13.18M1044.1,478.06h-13.18c-.9,0-1.64.74-1.64,1.64v13.16c0,.91.74,1.65,1.64,1.65h13.18c.91,0,1.65-.74,1.65-1.65v-13.16c0-.9-.74-1.64-1.65-1.64" fill="#00173f"></path><path d="M1037.49,491.78c-.56,0-.89-.34-.89-.91v-6.48c0-.27.08-.49.25-.66.17-.17.39-.26.65-.26s.47.08.65.24c.19.17.28.4.28.67v6.48c0,.27-.09.5-.28.67-.18.16-.4.24-.65.24ZM1037.49,482.64c-.26,0-.49-.1-.66-.28-.15-.18-.24-.4-.24-.65,0-.27.08-.49.25-.66.17-.17.39-.25.65-.25s.48.08.65.24c.19.17.28.4.28.67,0,.25-.09.48-.27.66-.18.18-.41.27-.66.27Z" fill="#00173f"></path></g><g><path d="M80.71,621.14c-.77,0-1.41-.63-1.41-1.41v-13.17c0-.77.64-1.4,1.41-1.4h13.18c.78,0,1.4.63,1.4,1.4v13.17c0,.77-.63,1.41-1.4,1.41h-13.18Z" fill="#f3ecda"></path><path d="M93.88,605.41c.64,0,1.16.52,1.16,1.16v13.17c0,.63-.53,1.16-1.16,1.16h-13.18c-.64,0-1.16-.52-1.16-1.16v-13.17c0-.64.52-1.16,1.16-1.16h13.18M93.88,604.93h-13.18c-.91,0-1.64.74-1.64,1.64v13.17c0,.9.74,1.65,1.64,1.65h13.18c.9,0,1.65-.74,1.65-1.65v-13.17c0-.9-.74-1.64-1.65-1.64" fill="#00173f"></path><path d="M87.59,607.84c.43,0,.85.09,1.23.25.39.17.73.4,1.02.68.29.29.52.62.69,1.02.17.39.26.81.26,1.25s-.09.85-.26,1.24c-.17.39-.4.73-.69,1.02-.29.29-.63.51-1.02.67-.38.17-.8.25-1.23.25h-2.63v3.7c0,.16-.05.3-.15.4-.11.1-.24.15-.41.15s-.3-.05-.41-.15c-.11-.1-.17-.23-.17-.4v-9.5c0-.16.06-.29.17-.41.11-.11.25-.17.42-.17h3.18ZM87.59,613.09c.28,0,.55-.05.79-.16.25-.11.47-.25.66-.45.19-.19.34-.4.44-.65.1-.25.16-.52.16-.79s-.06-.55-.16-.8c-.11-.24-.25-.47-.44-.66-.19-.19-.41-.35-.66-.45-.25-.11-.51-.16-.79-.16h-2.63v4.12h2.63Z" fill="#00173f"></path></g><g><path d="M80.71,277.98c-.77,0-1.41-.63-1.41-1.41v-13.17c0-.77.64-1.4,1.41-1.4h13.18c.78,0,1.4.63,1.4,1.4v13.17c0,.77-.63,1.41-1.4,1.41h-13.18Z" fill="#f3ecda"></path><path d="M93.88,262.26c.64,0,1.16.52,1.16,1.16v13.17c0,.63-.53,1.16-1.16,1.16h-13.18c-.64,0-1.16-.52-1.16-1.16v-13.17c0-.64.52-1.16,1.16-1.16h13.18M93.88,261.77h-13.18c-.91,0-1.64.74-1.64,1.64v13.17c0,.9.74,1.65,1.64,1.65h13.18c.9,0,1.65-.74,1.65-1.65v-13.17c0-.9-.74-1.64-1.65-1.64" fill="#00173f"></path><path d="M87.59,264.68c.43,0,.85.09,1.23.25.39.17.73.4,1.02.68.29.29.52.62.69,1.02.17.39.26.81.26,1.25s-.09.85-.26,1.24c-.17.39-.4.73-.69,1.02-.29.29-.63.51-1.02.67-.38.17-.8.25-1.23.25h-2.63v3.7c0,.16-.05.3-.15.4-.11.1-.24.15-.41.15s-.3-.05-.41-.15c-.11-.1-.17-.23-.17-.4v-9.5c0-.16.06-.29.17-.41.11-.11.25-.17.42-.17h3.18ZM87.59,269.93c.28,0,.55-.05.79-.16.25-.11.47-.25.66-.45.19-.19.34-.4.44-.65.1-.25.16-.52.16-.79s-.06-.55-.16-.8c-.11-.24-.25-.47-.44-.66-.19-.19-.41-.35-.66-.45-.25-.11-.51-.16-.79-.16h-2.63v4.12h2.63Z" fill="#00173f"></path></g><g><path d="M996.44,753.9c-.77,0-1.4-.63-1.4-1.4v-13.12c0-.77.63-1.4,1.4-1.4h13.13c.77,0,1.4.63,1.4,1.4v13.12c0,.77-.62,1.4-1.4,1.4h-13.13Z" fill="#f3ecda"></path><path d="M1009.58,738.22c.64,0,1.15.52,1.15,1.15v13.13c0,.64-.52,1.15-1.15,1.15h-13.13c-.64,0-1.15-.52-1.15-1.15v-13.13c0-.63.51-1.15,1.15-1.15h13.13M1009.58,737.73h-13.13c-.91,0-1.65.74-1.65,1.64v13.13c0,.91.74,1.65,1.65,1.65h13.13c.9,0,1.65-.74,1.65-1.65v-13.13c0-.9-.74-1.64-1.65-1.64" fill="#00173f"></path><g><path d="M999.84,743.92c0-.11-.04-.21-.11-.29-.08-.09-.18-.13-.3-.13h-2.58c-.11,0-.22.05-.29.13-.08.08-.12.18-.12.3,0,.15.07.25.13.3.08.07.18.11.29.11h.89v3.64c0,.15.06.24.11.29.08.08.18.11.3.11.11,0,.21-.04.29-.11.06-.05.13-.15.13-.3v-3.64h.87c.12,0,.22-.04.3-.12.08-.08.11-.18.11-.3Z" fill="#00173f"></path><path d="M1006.28,745.94l1.25-1.8c.05-.09.07-.19.05-.29-.02-.11-.07-.2-.17-.27-.09-.05-.19-.08-.31-.05-.11.02-.21.08-.25.16-.21.29-.41.58-.61.87-.15.22-.3.44-.45.66l-1.06-1.53c-.07-.09-.16-.15-.27-.17h-.07c-.08,0-.15.01-.22.05v.02s0-.02,0-.02c-.11.07-.17.17-.18.28-.02.11,0,.21.07.31l1.23,1.78-1.26,1.82c-.05.09-.07.19-.05.29.02.09.08.18.17.26.08.05.16.07.24.07.03,0,.06,0,.09,0,.11-.03.2-.08.27-.17l1.06-1.54,1.06,1.55c.07.08.15.13.25.16.11.03.23,0,.33-.07.09-.07.14-.15.17-.25.02-.1,0-.2-.06-.31l-1.26-1.8Z" fill="#00173f"></path><path d="M1002.1,743.8c-.03-.09-.07-.16-.13-.21-.07-.06-.16-.09-.27-.09h-.45c-.17,0-.31.1-.39.29-.16.46-.32.92-.47,1.37l-.93,2.68c-.03.11-.02.2.01.29.03.08.1.17.25.23h0c.11.04.22.02.32-.03.09-.05.15-.11.22-.23.07-.21.14-.42.21-.62.06-.17.12-.34.18-.51h1.66c.04.12.09.25.13.36l.05.15c.07.2.15.41.23.63h0c.03.11.1.19.2.24.06.03.12.05.19.05.05,0,.1,0,.14-.03.11-.04.19-.11.23-.19.04-.09.06-.18.03-.3l-1.41-4.06h0ZM1002.03,746.12h-1.09c.1-.29.2-.57.29-.84.09-.24.17-.48.25-.72.09.25.17.49.25.73.1.27.19.55.29.83Z" fill="#00173f"></path><path d="M1008.97,743.62c-.16-.16-.43-.16-.59,0-.08.08-.12.18-.12.3v4.05c0,.15.07.25.13.3.08.07.18.11.29.11.11,0,.2-.04.29-.11.08-.08.13-.18.13-.3v-4.05c0-.11-.04-.21-.12-.3Z" fill="#00173f"></path></g></g><g><path d="M831.72,750.59c-.77,0-1.4-.63-1.4-1.4v-13.13c0-.77.63-1.4,1.4-1.4h13.14c.77,0,1.39.63,1.39,1.4v13.13c0,.77-.62,1.4-1.39,1.4h-13.14Z" fill="#f3ecda"></path><path d="M844.86,734.92c.63,0,1.15.52,1.15,1.15v13.13c0,.64-.51,1.15-1.15,1.15h-13.14c-.64,0-1.15-.51-1.15-1.15v-13.13c0-.63.51-1.15,1.15-1.15h13.14M844.86,734.43h-13.14c-.9,0-1.65.74-1.65,1.64v13.13c0,.91.74,1.64,1.65,1.64h13.14c.9,0,1.64-.74,1.64-1.64v-13.13c0-.89-.74-1.64-1.64-1.64" fill="#00173f"></path><path d="M837.96,747.61c-.43,0-.63-.21-.73-.39l-3.05-8.43c-.12-.49.04-.86.43-1.06.15-.05.24-.06.33-.06.13,0,.25.03.36.09.18.09.31.22.4.4l2.56,7.11,2.57-7.07c.08-.2.23-.35.43-.45.11-.05.23-.08.36-.08.09,0,.17.01.26.04h0s0,0,0,0c.22.08.38.22.47.4.07.14.13.37,0,.67-.24.65-2.74,7.62-2.99,8.31-.18.36-.45.53-.79.53h-.62Z" fill="#00173f"></path></g></svg>